<?xml version="1.0" encoding="UTF-8"?>
<svg id="Layer_1" xmlns="http://www.w3.org/2000/svg" xmlns:xlink="http://www.w3.org/1999/xlink" version="1.1" viewBox="0 0 546 420">
  <!-- Generator: Adobe Illustrator 30.1.0, SVG Export Plug-In . SVG Version: 2.1.1 Build 136)  -->
  <defs>
    <style>
      .st0 {
        fill: #e0e0e0;
      }

      .st1 {
        fill: #e3e3e3;
      }

      .st2 {
        fill: #f4f4f4;
      }

      .st3 {
        fill: url(#linear-gradient);
      }

      .st4 {
        fill: #fff;
      }

      .st5 {
        fill: #262626;
      }

      .st6 {
        fill: #999;
      }

      .st7 {
        fill: #ececec;
      }
    </style>
    <linearGradient id="linear-gradient" x1="273" y1="405.89" x2="273" y2="177.89" gradientTransform="translate(0 419.89) scale(1 -1)" gradientUnits="userSpaceOnUse">
      <stop offset="0" stop-color="#ffd268"/>
      <stop offset="1" stop-color="#f6bd41"/>
    </linearGradient>
  </defs>
  <path class="st2" d="M35.46,356.77c1.02,0,1.96.25,2.81.75.87.5,1.56,1.18,2.06,2.06.5.85.75,1.78.75,2.81v.37h-2.25v-.37c0-.62-.15-1.19-.45-1.68-.3-.52-.71-.94-1.24-1.24-.5-.3-1.06-.45-1.68-.45s-1.16.15-1.68.45c-.52.3-.94.71-1.24,1.24-.3.5-.45,1.06-.45,1.68v8.23c0,.6.15,1.16.45,1.68.3.52.71.94,1.24,1.23.52.3,1.09.45,1.68.45s1.18-.15,1.68-.45c.52-.3.94-.71,1.24-1.23.3-.52.45-1.09.45-1.68v-.37h2.25v.37c0,1.02-.25,1.97-.75,2.84-.5.85-1.18,1.52-2.06,2.02-.85.5-1.78.75-2.81.75s-1.97-.25-2.84-.75c-.85-.5-1.52-1.17-2.02-2.02-.5-.87-.75-1.82-.75-2.84v-8.23c0-1.02.25-1.96.75-2.81.5-.87,1.17-1.56,2.02-2.06.87-.5,1.82-.75,2.84-.75ZM185.23,356.77c.95,0,1.82.24,2.62.71.82.45,1.46,1.08,1.91,1.91.47.8.71,1.67.71,2.62v.75h-2.25v-.75c0-.82-.3-1.52-.9-2.1-.57-.6-1.27-.9-2.09-.9s-1.53.3-2.13.9c-.57.57-.86,1.27-.86,2.1,0,.62.12,1.13.37,1.53.28.37.64.69,1.09.94.45.22,1.06.47,1.83.75l.37.11c1.1.4,1.98.81,2.66,1.24.7.42,1.25.97,1.65,1.65.42.67.64,1.52.64,2.55v.04c0,.95-.25,1.85-.75,2.69-.5.82-1.19,1.48-2.06,1.98-.85.5-1.78.75-2.81.75s-1.97-.25-2.84-.75c-.85-.52-1.52-1.21-2.02-2.06-.5-.87-.75-1.81-.75-2.81v-.37h2.25v.37c0,.6.15,1.16.45,1.68.33.5.74.91,1.24,1.23.52.3,1.09.45,1.68.45s1.16-.15,1.68-.45c.52-.3.94-.69,1.24-1.16.3-.5.45-1.02.45-1.57v-.04c0-.62-.12-1.12-.37-1.5-.25-.4-.6-.72-1.05-.97-.45-.25-1.07-.51-1.87-.78l-.41-.11c-1.12-.37-2.03-.77-2.73-1.2-.67-.45-1.21-1.01-1.61-1.68-.37-.7-.56-1.53-.56-2.51s.24-1.82.71-2.62c.47-.8,1.11-1.43,1.91-1.91.8-.47,1.67-.71,2.62-.71ZM275.09,356.77c.95,0,1.82.24,2.62.71.82.45,1.46,1.08,1.91,1.91.47.8.71,1.67.71,2.62v.75h-2.24v-.75c0-.82-.3-1.52-.9-2.1-.57-.6-1.27-.9-2.1-.9s-1.53.3-2.13.9-.86,1.27-.86,2.1c0,.62.12,1.13.37,1.53.27.37.64.69,1.09.94.45.22,1.06.47,1.83.75l.37.11c1.1.4,1.98.81,2.66,1.24.7.42,1.25.97,1.65,1.65.42.67.64,1.52.64,2.55v.04c0,.95-.25,1.85-.75,2.69-.5.82-1.18,1.48-2.06,1.98-.85.5-1.78.75-2.81.75s-1.97-.25-2.84-.75c-.85-.52-1.52-1.21-2.02-2.06-.5-.87-.75-1.81-.75-2.81v-.37h2.25v.37c0,.6.15,1.16.45,1.68.32.5.74.91,1.24,1.23.52.3,1.08.45,1.68.45s1.16-.15,1.68-.45c.52-.3.94-.69,1.24-1.16.3-.5.45-1.02.45-1.57v-.04c0-.62-.12-1.12-.37-1.5-.25-.4-.6-.72-1.05-.97-.45-.25-1.07-.51-1.87-.78l-.41-.11c-1.12-.37-2.03-.77-2.73-1.2-.67-.45-1.21-1.01-1.61-1.68-.37-.7-.56-1.53-.56-2.51s.24-1.82.71-2.62c.47-.8,1.11-1.43,1.91-1.91.8-.47,1.67-.71,2.62-.71ZM364.95,356.77c.95,0,1.82.24,2.62.71.82.45,1.46,1.08,1.91,1.91.47.8.71,1.67.71,2.62v.75h-2.25v-.75c0-.82-.3-1.52-.9-2.1-.57-.6-1.27-.9-2.09-.9s-1.54.3-2.13.9c-.57.57-.86,1.27-.86,2.1,0,.62.12,1.13.37,1.53.27.37.64.69,1.09.94.45.22,1.06.47,1.83.75l.37.11c1.1.4,1.98.81,2.66,1.24.7.42,1.25.97,1.65,1.65.42.67.64,1.52.64,2.55v.04c0,.95-.25,1.85-.75,2.69-.5.82-1.19,1.48-2.06,1.98-.85.5-1.78.75-2.81.75s-1.97-.25-2.84-.75c-.85-.52-1.52-1.21-2.02-2.06-.5-.87-.75-1.81-.75-2.81v-.37h2.25v.37c0,.6.15,1.16.45,1.68.32.5.74.91,1.24,1.23.52.3,1.09.45,1.68.45s1.16-.15,1.68-.45c.52-.3.94-.69,1.24-1.16.3-.5.45-1.02.45-1.57v-.04c0-.62-.12-1.12-.37-1.5-.25-.4-.6-.72-1.05-.97-.45-.25-1.07-.51-1.87-.78l-.41-.11c-1.12-.37-2.03-.77-2.73-1.2-.67-.45-1.21-1.01-1.61-1.68-.37-.7-.56-1.53-.56-2.51s.24-1.82.71-2.62c.47-.8,1.11-1.43,1.91-1.91.8-.47,1.67-.71,2.62-.71ZM469.79,356.77c1.02,0,1.96.25,2.81.75.87.5,1.56,1.18,2.06,2.06.5.85.75,1.78.75,2.81v8.23c0,1.02-.25,1.97-.75,2.84-.5.85-1.18,1.52-2.06,2.02-.85.5-1.78.75-2.81.75s-1.97-.25-2.84-.75c-.85-.5-1.52-1.17-2.02-2.02-.5-.87-.75-1.82-.75-2.84v-8.23c0-1.02.25-1.96.75-2.81.5-.87,1.17-1.56,2.02-2.06.87-.5,1.82-.75,2.84-.75ZM50.43,357.14c1.02,0,1.96.25,2.81.75.87.5,1.56,1.19,2.06,2.06.5.85.75,1.78.75,2.81v1.12c0,1.02-.25,1.97-.75,2.84-.47.8-1.11,1.44-1.92,1.93l2.67,7.2h-2.36l-2.38-6.43c-.28.04-.57.07-.87.07h-3.37v6.36h-2.25v-18.71h5.61ZM71.77,375.85h-2.28l-1.24-4.49h-5.69l-1.2,4.49h-2.32l4.87-18.71h2.99l4.86,18.71ZM77.02,370.2l2.21-5.57h2.32l2.21,5.57v-13.06h2.25v18.71h-2.43l-3.16-7.91-3.2,7.91h-2.43v-18.71h2.25v13.05ZM92,373.61h8.98v2.25h-11.23v-18.71h2.25v16.46ZM131.68,375.85h-2.28l-1.23-4.49h-5.69l-1.2,4.49h-2.32l4.87-18.71h2.99l4.86,18.71ZM143.66,366.35v-9.21h2.25v18.71h-2.25v-5.24l-6.74-9.09v14.33h-2.25v-18.71h2.25l6.74,9.21ZM155.31,365.67l3.89-8.53h2.43l-5.24,11.79v6.92h-2.25v-7l-5.24-11.71h2.47l3.93,8.53ZM205.82,359.39h-4.49v14.22h4.49v2.25h-11.23v-2.25h4.49v-14.22h-4.49v-2.24h11.23v2.24ZM220.79,359.39h-4.49v16.47h-2.25v-16.47h-4.49v-2.24h11.23v2.24ZM235.77,359.39h-8.98v5.99h8.98v2.25h-8.98v5.99h8.98v2.25h-11.23v-18.71h11.23v2.24ZM246.26,375.85h-2.25v-3.74h2.25v3.74ZM296.43,375.85h-2.28l-1.24-4.49h-5.69l-1.2,4.49h-2.32l4.86-18.71h2.99l4.86,18.71ZM305.04,373.08l4.08-15.94h2.28l-4.6,18.71h-3.48l-4.64-18.71h2.32l4.04,15.94ZM325.63,359.39h-8.98v5.99h8.98v2.25h-8.98v5.99h8.98v2.25h-11.23v-18.71h11.23v2.24ZM356.34,375.85h-2.28l-1.23-4.49h-5.69l-1.2,4.49h-2.32l4.86-18.71h2.99l4.86,18.71ZM394.92,365.05l3.17-7.91h2.43v18.71h-2.25v-13.06l-2.21,5.57h-2.32l-2.21-5.57v13.06h-2.25v-18.71h2.43l3.2,7.91ZM416.24,375.85h-2.28l-1.24-4.49h-5.69l-1.2,4.49h-2.32l4.86-18.71h2.99l4.86,18.71ZM424.86,357.14c1.02,0,1.96.25,2.81.75.87.5,1.56,1.19,2.06,2.06.5.85.75,1.78.75,2.81v1.12c0,1.02-.25,1.97-.75,2.84-.47.8-1.11,1.44-1.92,1.93l2.67,7.2h-2.36l-2.38-6.43c-.28.04-.57.07-.87.07h-3.37v6.36h-2.25v-18.71h5.61ZM436.47,365.37h2.36l4.9-8.23h2.47l-5.39,9.36,5.39,9.36h-2.47l-4.9-8.23h-2.36v8.23h-2.25v-18.71h2.25v8.23ZM454.81,357.14c1.02,0,1.96.25,2.81.75.87.5,1.56,1.19,2.06,2.06.5.85.75,1.78.75,2.81v7.48c0,1.02-.25,1.97-.75,2.84-.5.85-1.18,1.52-2.06,2.02-.85.5-1.78.75-2.81.75h-5.61v-18.71h5.61ZM481.4,370.2l2.21-5.57h2.32l2.21,5.57v-13.06h2.25v18.71h-2.43l-3.17-7.91-3.2,7.91h-2.43v-18.71h2.25v13.05ZM503.11,366.35v-9.21h2.25v18.71h-2.25v-5.24l-6.74-9.09v14.33h-2.25v-18.71h2.25l6.74,9.21ZM515.84,375.85h-2.25v-3.74h2.25v3.74ZM469.79,359.01c-.6,0-1.16.15-1.68.45-.52.3-.94.71-1.24,1.24-.3.5-.45,1.06-.45,1.68v8.23c0,.6.15,1.16.45,1.68.3.52.71.94,1.24,1.23.52.3,1.08.45,1.68.45s1.18-.15,1.68-.45c.52-.3.94-.71,1.24-1.23.3-.52.45-1.09.45-1.68v-8.23c0-.62-.15-1.19-.45-1.68-.3-.52-.71-.94-1.24-1.24-.5-.3-1.06-.45-1.68-.45ZM451.45,373.61h3.37c.62,0,1.19-.15,1.68-.45.52-.3.94-.71,1.23-1.23.3-.52.45-1.09.45-1.69v-7.48c0-.62-.15-1.19-.45-1.68-.3-.52-.71-.94-1.23-1.24-.5-.3-1.06-.45-1.68-.45h-3.37v14.22ZM63.05,369.12h4.71l-2.36-8.35-2.36,8.35ZM122.96,369.12h4.71l-2.36-8.35-2.36,8.35ZM287.71,369.12h4.71l-2.36-8.35-2.36,8.35ZM347.62,369.12h4.71l-2.36-8.35-2.36,8.35ZM407.52,369.12h4.71l-2.36-8.35-2.36,8.35ZM47.07,367.24h3.37c.62,0,1.18-.15,1.68-.45.52-.3.94-.71,1.24-1.24.3-.52.45-1.08.45-1.68v-1.12c0-.62-.15-1.19-.45-1.68-.3-.52-.71-.94-1.24-1.24-.5-.3-1.06-.45-1.68-.45h-3.37v7.86ZM421.49,367.24h3.37c.62,0,1.19-.15,1.68-.45.52-.3.94-.71,1.24-1.24.3-.52.45-1.08.45-1.68v-1.12c0-.62-.15-1.19-.45-1.68-.3-.52-.71-.94-1.24-1.24-.5-.3-1.06-.45-1.68-.45h-3.37v7.86Z"/>
  <path class="st4" d="M174.31,281.86c3.06,0,5.86.75,8.4,2.24,2.61,1.49,4.67,3.55,6.16,6.16,1.49,2.54,2.24,5.34,2.24,8.4v1.12h-11.21v-1.12c0-1.05-.26-1.98-.78-2.8-.45-.9-1.12-1.57-2.02-2.02-.82-.52-1.75-.79-2.8-.79s-2.02.26-2.91.79c-.82.45-1.49,1.12-2.02,2.02-.45.82-.67,1.76-.67,2.8v24.65c0,1.05.22,2.02.67,2.91.52.82,1.2,1.49,2.02,2.02.9.45,1.87.67,2.91.67s1.98-.22,2.8-.67c.9-.52,1.57-1.19,2.02-2.02.52-.9.78-1.87.78-2.91v-1.12h11.21v1.12c0,3.06-.75,5.9-2.24,8.52-1.49,2.54-3.55,4.56-6.16,6.05-2.54,1.49-5.34,2.24-8.4,2.24s-5.9-.75-8.51-2.24c-2.54-1.49-4.56-3.51-6.05-6.05-1.49-2.61-2.24-5.45-2.24-8.52v-24.65c0-3.06.75-5.86,2.24-8.4,1.49-2.61,3.51-4.67,6.05-6.16,2.61-1.49,5.45-2.24,8.51-2.24ZM213.55,327.8h22.41v11.2h-33.61v-56.02h11.21v44.82ZM258.39,339h-11.2v-56.02h11.2v56.02ZM286.42,282.98c3.06,0,5.86.75,8.4,2.24,2.61,1.49,4.67,3.55,6.16,6.16,1.49,2.54,2.24,5.34,2.24,8.4v5.6c0,3.06-.75,5.9-2.24,8.52-1.49,2.54-3.55,4.56-6.16,6.05-2.54,1.49-5.34,2.24-8.4,2.24h-5.6v16.81h-11.2v-56.02h16.81ZM331.26,282.98c3.06,0,5.86.75,8.4,2.24,2.61,1.49,4.67,3.55,6.16,6.16,1.49,2.54,2.24,5.34,2.24,8.4v5.6c0,3.06-.75,5.9-2.24,8.52-1.49,2.54-3.55,4.56-6.16,6.05-2.54,1.49-5.34,2.24-8.4,2.24h-5.6v16.81h-11.2v-56.02h16.81ZM376.39,303.05l7.23-20.07h11.99l-13.67,37.25v18.77h-11.2v-19.2l-13.67-36.82h12.1l7.23,20.07ZM280.82,310.99h5.6c1.05,0,1.98-.23,2.8-.67.9-.52,1.57-1.2,2.02-2.02.52-.9.78-1.87.78-2.91v-5.6c0-1.05-.26-1.98-.78-2.8-.45-.9-1.12-1.57-2.02-2.02-.82-.52-1.76-.79-2.8-.79h-5.6v16.81ZM325.66,310.99h5.6c1.05,0,1.98-.23,2.8-.67.9-.52,1.57-1.2,2.02-2.02.52-.9.78-1.87.78-2.91v-5.6c0-1.05-.26-1.98-.78-2.8-.45-.9-1.12-1.57-2.02-2.02-.82-.52-1.76-.79-2.8-.79h-5.6v16.81Z"/>
  <g>
    <circle class="st3" cx="273" cy="128" r="114"/>
    <path d="M292.09,137.02v3.96c0,6.59-1.3,12.54-4.12,18.83-.56,1.68-1.5,4.48-2.84,5.55-.91.68-2.92,1.65-3.8,2.05-.27.03-.53.04-.78.04-5.74,0-7.29-6.79-8.1-14.01,0-1.62,0-3.3-.32-4.79,0-1.2-.23-2.65-1.87-3.19-.61-.3-1.53-.26-2.17-.15-.44-.22-.91-.34-1.38-.34-2.07,0-3.71,2.15-4.06,4.32,0,1.45.24,2.85.52,4.47l.12.64c0,.59.2,1.7.3,2.21-.3,1.31-.29,2.38.03,3.7.04.42.2,1.11.32,1.55.35,3.18,1.73,6.46,3.68,8.78.3.57,1.01,1.73,2.22,2.53.12.08.24.13.38.16.1.07.28.22.39.32,2.39,2.59,4.83,3.75,7.89,3.75,1.83,0,3.78-.42,5.69-.9.71-.24,1.49-.38,2.32-.54,1.29-.24,2.62-.49,4-1.19,2.29-1.53,3.95-4.45,4.52-6.48.62-1.23,1.18-3.6,1.33-4.26,2.07-4,2.52-9.07,3.18-13.46.53-3.49-.72-10.42,1.85-12.91"/>
    <path d="M242.6,135.91c.3.1.68.2,1.08.29M243.68,136.2c.04.97.15,1.93.24,2.8.1.87.19,1.67.19,2.29,0,1.93,0,3.92.32,5.79.1,3.03.07,6.15.05,9.17-.05,6.92-.1,14.07,1.25,21.04l.17.88c.94,4.77,2.01,10.18,5.53,14.02,7.34,7.68,18.1,8.32,27.61,8.32,1.87,0,3.58-.25,5.39-.52,1.06-.16,2.16-.32,3.35-.44.08,0,.16-.02.23-.05.82-.28,2.81-1.02,3.39-1.23.75-.05,1.67-.35,2.56-.65.57-.08,1.24-.43,1.67-.81,5.78-2.93,10.8-8.21,13.82-14.62.64-1.92,1.3-3.9,1.65-6.07,0-1.2.31-3.97.3-3.97,1.13-6.41,1.61-11.33,1.61-16.48,0-.2,0-.44.01-.72.06-1.89.16-5.04-1.44-6.68-.65-.67-1.53-1.02-2.53-1.02-.13,0-.26,0-.3.01-3.8,0-4.25,3.11-4.57,5.36-.4,2.38-.44,4.85-.48,7.26-.03,1.62-.05,3.15-.18,4.74,0,2.13-.26,5.31-.44,6.09-.09.13-.16.29-.19.47-.08.57-.14,1.14-.2,1.71-.18,1.64-.34,3.2-1,4.73-.06.13-.09.28-.09.42,0,.45-.49,1.4-.73,1.65-.3.19-.52.54-.55.9,0,.11-.18.38-.39.6-.38.46-.76.93-1.15,1.41-1.2,1.5-2.45,3.05-3.9,4.26-.76.76-2.46,2.01-2.94,2.35l-2.57.87c-10.17,1.82-18.69.68-25.47-3.38-.79-.47-1.55-.87-2.29-1.25-2.18-1.12-3.9-2.01-4.97-4.36-1.9-4.05-2-8.01-2.09-12.2-.03-1.21-.06-2.44-.13-3.64,0-1.81-.19-3.55-.37-5.23-.17-1.69-.35-3.3-.35-5v-18.92M251.61,135.22s0,0,0,0Z"/>
    <path d="M238.49,97.51c1.69-.33,3.43-1.05,4.87-1.38,1.81-.43,3.35-.55,5.08.09,1.21.45,4,.95,4.86,1.98.14.17.33.3.56.35l.66.17c.93.26,1.76.43,2.66.17.8-.04,1.5-.39,1.58-.43.1-.05.14-.07.22-.15.05-.03.18-.05.26-.05.3,0,.58-.13.79-.35,1.31-1.43,1.85-2.9,1.62-4.38-.35-2.22-2.4-3.89-4.28-5.06.43-1.02.45-2.28.42-3.06.57-.74.9-1.71.93-2.75.24-.87.3-2.12.32-2.72.23-.44.3-.97.32-1.37l.3-.7c.83-1.97,1.69-4.01,2.91-5.49.36-.36.63-.71.89-1.07.19-.25.37-.5.61-.75.75-.45,1.8-1.48,2.02-1.7l.22-.22c2.17-1.23,4.64-2.46,6.77-3.38.9-.3,1.76-.59,2.43-.9.57-.04,1.19-.22,1.49-.31,3.99.07,8.03,2.65,10.01,6.3.4,1.21.91,2.26,1.4,3.28.31.64.61,1.27.84,1.83.29.88,1,2.13,1.27,2.6.63,3.45,1.26,6.59,1.87,9.53,0,.65.02,1.19.06,1.7-.28,0-.55-.01-.83-.01-3.4,0-5.68.63-7.32,2.14-1.15,1.54-1.63,4-.22,5.86.67.67,1.87,1.04,2.48,1.18.63.55,1.5,1.05,2.34,1.19.44.3.92.44,1.09.49.09.03.18.04.27.04h.32c1.17,0,2.4-.22,3.59-.42,1.86-.32,3.75-.6,5.01-.13.79.26,1.33.58,2.42,1.29.47.23,1.27.57,1.7.75.84,1.1,2.26,1.75,3.88,1.75,2.25,0,4.65-1.32,4.9-3.84.37-3.31-2.56-5.22-4.49-6.49l-2.34-1.25c-.86-.61-1.92-1.09-3.23-1.44-.27-3.87-.65-7.72-1.78-11.94-.3-1.83-1.64-5.4-1.92-6.15-.05-.3-.18-.53-.3-.71,0-.17-.04-.33-.11-.48l-1.99-3.95c-.58-.86-1.62-2.19-1.9-2.54-1.67-3.3-4.03-5.99-7.02-7.98-.14-.1-.3-.17-.55-.28-.15-.12-.34-.19-.55-.21-.08-.01-.16-.02-.22-.02-.78-.35-1.64-.7-2.46-.7h-.68c-.18,0-.36-.04-.55-.07-.32-.06-.65-.12-.99-.12-.17,0-.34.01-.33.03-.63,0-1.53.07-2.18.12-.33.02-.58.04-.69.04h-2.56c-4.94,0-8.63,2.18-12.55,4.5-1.16.69-2.35,1.39-3.59,2.05-.5.25-1.77.98-2.51,2.14-.12.12-.27.3-.44.51-.12.15-.33.4-.45.53-.11.04-.21.1-.3.17-1.41,1.13-2.15,2.45-2.86,3.74-.19.34-.38.68-.52.93l-.42.56c-3.54,4.72-4.87,6.49-7.43,12.61-.08.3-.19.65-.31,1.02-.26.81-.58,1.77-.67,2.74-2.05.39-3.92.91-5.71,1.57-.08.03-.15.06-.22.11-.27.18-.73.36-1.18.53-.96.38-2.05.81-2.63,1.68-.88,1.31-.88,3.7,0,5.02,1.25,1.87,3.13,2.02,5.07,1.64ZM282.52,57.6c-.22,0-.43-.04-.66-.08.22.04.44.08.66.08ZM280.98,57.41s.05,0,.07,0c-.13,0-.27,0-.41.02-.02,0-.05,0-.07,0,.02,0,.05,0,.07,0,.06,0,.27-.01.33-.03ZM279.53,57.49c.05,0,.09,0,.14,0-.05,0-.1,0-.14,0ZM273.53,57.71c.55-.06,1.1-.1,1.68-.1-.58,0-1.13.05-1.68.1Z"/>
    <g>
      <g>
        <path class="st1" d="M311.62,108.11c17.49,15.22-6.26,41.75-23.75,26.84-16.51-16.32,5.26-41.95,23.75-26.84Z"/>
        <path class="st6" d="M299.1,140.59c-4.02,0-8.19-1.4-12.05-4.68l-.07-.06c-4.14-4.09-6.29-9.03-6.23-14.29.06-4.69,1.89-9.28,5.15-12.91,3.2-3.56,7.43-5.79,11.91-6.28,5.05-.56,10.09,1.09,14.6,4.77l.03.03c4.28,3.73,6.55,8.39,6.56,13.49,0,4.49-1.76,9.01-4.97,12.74-3.71,4.31-9.16,7.2-14.94,7.2ZM288.72,134.03c3.81,3.23,8.2,4.58,12.68,3.89,3.97-.61,7.89-2.86,10.74-6.17,2.81-3.27,4.36-7.21,4.36-11.1,0-4.34-1.97-8.35-5.68-11.58-8.73-7.12-17.86-4.5-23.03,1.26-5.21,5.8-7.14,15.68.94,23.69Z"/>
      </g>
      <path d="M302.63,116.6c-5.69-4.7-14.42-1.45-15.76,5.78-1.36,7.1,5.46,13.23,12.37,11.14,7.44-2.21,9.47-11.97,3.42-16.89l-.03-.03Z"/>
      <path class="st7" d="M290.42,120.83c.36.57.26,1.69-.11,2.29-.55,1.03-1.7.81-1.93-.27-.16-.63,0-1.48.38-1.98.38-.58,1.25-.76,1.64-.07l.02.03Z"/>
      <g>
        <path class="st1" d="M260.28,106.12c10.38,6.24,11.46,21.3,2.13,29-8.53,7.23-21.82,4.81-27.24-4.97-8.62-16.2,9.19-33.43,25.08-24.06l.04.02Z"/>
        <path class="st6" d="M250.92,140.57c-1.17,0-2.35-.11-3.53-.32-5.7-1.04-10.55-4.5-13.32-9.49v-.02c-2.18-4.08-2.9-8.49-2.08-12.77.74-3.89,2.76-7.58,5.7-10.39,6.38-6.11,15.49-7.12,23.19-2.57l.04.03c5.29,3.18,8.59,8.61,9.06,14.91.46,6.22-2.07,12.26-6.78,16.14-3.45,2.92-7.79,4.48-12.29,4.48ZM236.27,129.55c2.4,4.32,6.62,7.32,11.57,8.23,4.96.91,9.97-.41,13.75-3.62,4.15-3.43,6.29-8.54,5.88-14.03-.41-5.47-3.27-10.19-7.85-12.94l-.04-.02c-3.46-2.04-7.26-2.85-10.97-2.31-3.38.49-6.64,2.1-9.19,4.54-5.58,5.34-6.82,13.25-3.15,20.15Z"/>
      </g>
      <path d="M257.95,114.97c-9.51-3.71-17.87,7.32-11.64,15.45,4.77,6.13,14.46,4.61,17.22-2.61,1.98-4.96-.6-10.85-5.55-12.83l-.04-.02Z"/>
      <path class="st0" d="M261.98,123.49c-1.74,1-2.74-2.33-1.02-2.88,1.54-.49,2.15,2.08,1.05,2.86l-.03.02Z"/>
      <path class="st5" d="M257.96,114.99c-3.91,5.29-6.73,8.89-13.77,9.85-.2-3.43,1.38-6.72,4.17-8.72s6.42-2.43,9.6-1.13Z"/>
      <path class="st5" d="M306.12,125.67c-.95-1.16-2.41-1.49-3.88-2.01-4.19-1.47-7.03-4.8-9.15-8.65,3.25-1.2,6.89-.59,9.56,1.61,2.68,2.19,3.99,5.64,3.46,9.06Z"/>
    </g>
  </g>
</svg>