<svg width="546" height="420" viewBox="0 0 546 420" fill="none" xmlns="http://www.w3.org/2000/svg">
<circle cx="274.899" cy="128" r="128" fill="url(#paint0_linear_1_59)"/>
<path d="M312.314 134.079C312.725 133.67 313.355 132.74 313.5 132.519C313.74 132.199 313.991 131.881 314.247 131.56C315.146 130.419 316.17 129.128 316.811 127.518C316.94 127.133 317.105 126.695 317.26 126.284C317.674 125.193 317.856 124.694 317.856 124.265V117.449C317.856 116.109 317.052 114.916 316.342 113.863L316.208 113.682C315.868 113.007 315.179 112.156 314.878 111.799C313.359 108.176 308.499 106.789 306.88 106.329C306.184 106.131 305.49 106.301 304.926 106.327C304.565 106.344 304.237 106.358 303.931 106.358H301.778C301.075 106.358 299.319 106.286 299.317 106.284C299.209 106.281 299.126 106.286 299.032 106.308L298.104 106.478C296.545 106.755 294.933 107.042 293.706 107.987C293.307 108.188 292.905 108.453 292.505 108.726C292.19 108.939 291.874 109.156 291.558 109.314C291.23 109.477 290.998 109.778 290.922 110.128C290.848 110.233 290.685 110.412 290.527 110.56C290.176 110.912 289.468 111.596 289.451 111.608C289.176 111.883 289.02 112.201 288.884 112.534C288.556 112.747 288.332 113.105 288.332 113.514C288.257 113.663 288.162 113.854 288.095 114.084C287.803 114.509 287.578 115.05 287.447 115.416C287.296 115.617 287.2 115.827 287.155 116.062C287.018 116.258 286.947 116.494 286.947 116.736C286.947 117.262 286.923 117.561 286.899 117.726C286.789 117.846 286.703 117.989 286.65 118.152C286.191 119.534 286.576 121.132 286.963 122.682C286.995 122.952 287.066 123.371 287.15 123.787C287.219 124.136 287.296 124.481 287.306 124.631C287.306 125.004 287.427 125.373 287.547 125.727C287.595 125.873 287.65 126.014 287.664 126.066C287.664 126.535 287.877 127.097 288.054 127.48C288.135 127.951 288.348 128.425 288.427 128.549C288.882 130.142 290.259 134.06 293.163 135.992L293.857 136.516C294.73 137.174 296.33 137.561 296.33 138.123C296.33 138.32 296.33 138.513 296.33 138.709C296.33 138.709 296.33 142.563 296.33 142.565C296.33 149.965 294.873 156.648 291.702 163.711C291.073 165.593 290.023 168.743 288.516 169.946C287.494 170.714 285.232 171.8 284.249 172.247C283.947 172.276 283.653 172.29 283.371 172.29C276.923 172.29 275.186 164.665 274.275 156.555C274.275 154.735 274.275 152.855 273.916 151.173C273.916 149.827 273.66 148.195 271.821 147.593C271.142 147.253 270.104 147.298 269.379 147.423C268.882 147.174 268.362 147.045 267.829 147.045C265.504 147.045 263.663 149.461 263.275 151.891C263.275 153.524 263.543 155.093 263.854 156.911L263.993 157.633C263.993 158.293 264.213 159.537 264.325 160.118C263.99 161.589 264.002 162.785 264.363 164.278C264.409 164.744 264.588 165.526 264.72 166.019C265.117 169.595 266.66 173.269 268.855 175.88C269.19 176.519 269.994 177.818 271.345 178.722C271.477 178.808 271.62 178.87 271.773 178.899C271.888 178.973 272.091 179.14 272.208 179.253C274.897 182.164 277.628 183.462 281.068 183.462C283.127 183.462 285.313 182.989 287.459 182.448C288.257 182.18 289.135 182.018 290.063 181.846C291.51 181.578 293.005 181.3 294.56 180.513C297.131 178.798 298.999 175.519 299.63 173.235C300.322 171.853 300.958 169.191 301.128 168.456C303.455 163.969 303.955 158.27 304.696 153.34C305.287 149.42 303.89 141.639 306.777 138.846C308.475 137.193 310.549 135.837 312.314 134.079ZM306.488 118.047C307.389 119.439 307.7 121.381 307.397 122.842C306.703 126.172 301.247 126.621 298.748 125.1C297.805 124.531 297.633 123.986 297.588 123.624C297.081 119.719 299.284 116.463 303.342 116.284C304.737 116.219 305.789 116.968 306.488 118.047ZM315.464 124.184C315.464 123.809 315.464 123.191 315.464 123.191V122.833C315.464 121.039 315.464 119.963 315.464 118.527C315.464 118.169 315.464 117.454 315.464 117.451L315.471 124.163C315.471 124.167 315.464 124.177 315.464 124.184Z" fill="black"/>
<path d="M318.231 150.757C317.499 150.004 316.519 149.607 315.39 149.607C315.249 149.607 315.103 149.611 315.053 149.621C310.786 149.621 310.286 153.118 309.927 155.644C309.482 158.31 309.437 161.095 309.394 163.79C309.365 165.61 309.336 167.328 309.193 169.114C309.193 171.506 308.903 175.075 308.695 175.957C308.59 176.108 308.516 176.287 308.487 176.481C308.396 177.122 308.327 177.763 308.258 178.404C308.059 180.248 307.872 181.992 307.136 183.711C307.071 183.86 307.038 184.022 307.038 184.183C307.038 184.692 306.488 185.749 306.222 186.031C305.882 186.249 305.641 186.639 305.603 187.046C305.593 187.167 305.404 187.471 305.163 187.722C304.734 188.237 304.306 188.77 303.871 189.311C302.522 190.992 301.125 192.733 299.494 194.099C298.64 194.953 296.734 196.352 296.198 196.739L293.311 197.713C281.893 199.756 272.323 198.481 264.717 193.917C263.835 193.389 262.976 192.944 262.151 192.518C259.704 191.255 257.772 190.258 256.571 187.617C254.433 183.073 254.33 178.626 254.22 173.919C254.189 172.561 254.158 171.178 254.079 169.827C254.079 167.789 253.871 165.845 253.667 163.96C253.471 162.058 253.277 160.26 253.277 158.349V137.11C254.715 136.813 255.277 136.461 256.042 135.93L256.609 135.514C257.281 134.842 258.312 133.854 258.307 133.842C261.055 131.876 263.99 128.71 263.99 125.703C263.99 125.485 264.246 125.043 264.452 124.687C264.82 124.05 265.236 123.333 265.236 122.472V121.037C265.236 120.13 264.784 119.463 264.418 118.927C264.22 118.638 264.017 118.336 264.017 118.167C264.017 117.968 264.017 117.399 263.136 116.497C262.775 114.665 261.914 112.299 259.879 110.573C259.472 109.889 258.857 109.298 258.434 108.894L258.245 108.714C257.87 108.336 257.288 108.011 256.97 107.851C256.643 107.53 256.327 107.236 256.243 107.164C254.865 106.131 253.225 105.019 251.584 104.61C250.407 104.218 248.546 103.986 248.322 103.966L246.705 103.962C244.999 103.962 243.325 104.045 241.558 105.107C240.508 105.808 239.271 107.219 238.891 107.662C234.672 110.699 230.063 115.234 231.354 123.419C231.792 126.048 232.653 128.167 233.988 129.896C234.258 130.575 234.748 131.333 235.183 132.008C235.389 132.328 235.58 132.606 235.671 132.79C235.693 132.883 235.724 132.972 235.767 133.058C236.65 134.823 239.111 136.476 240.766 136.885C241.101 136.995 241.531 137.107 241.974 137.21C242.022 138.294 242.141 139.375 242.249 140.355C242.356 141.336 242.457 142.226 242.457 142.922C242.457 145.086 242.457 147.325 242.816 149.418C242.926 152.817 242.899 156.325 242.873 159.717C242.818 167.483 242.758 175.512 244.272 183.338L244.468 184.331C245.528 189.688 246.729 195.764 250.68 200.076C258.924 208.694 271.005 209.414 281.68 209.414C283.778 209.414 285.698 209.129 287.729 208.825C288.92 208.648 290.152 208.464 291.486 208.33C291.575 208.323 291.663 208.304 291.747 208.277C292.67 207.967 294.899 207.137 295.552 206.893C296.397 206.838 297.423 206.503 298.432 206.168C299.075 206.082 299.822 205.685 300.307 205.264C306.799 201.973 312.429 196.051 315.83 188.844C316.547 186.692 317.289 184.462 317.679 182.028C317.679 180.683 318.023 177.572 318.018 177.572C319.288 170.377 319.831 164.845 319.831 159.066C319.831 158.841 319.839 158.569 319.848 158.26C319.918 156.143 320.023 152.604 318.231 150.757ZM251.716 116.248C253.292 118.217 253.06 122.312 252.383 124.33C251.945 125.639 250.747 126.299 248.824 126.299C248.011 126.299 247.099 126.165 246.265 125.923C244.954 125.54 244.246 125.112 243.818 124.455C242.344 122.17 242.323 119.475 243.665 117.102C244.885 114.945 249.144 114.199 251.156 115.703C251.366 115.858 251.55 116.043 251.716 116.248ZM250.886 136.107C250.886 136.105 250.886 136.105 250.886 136.107ZM248.176 106.349C248.19 106.351 248.223 106.356 248.243 106.358C248.149 106.358 248.058 106.358 247.965 106.358L248.176 106.349Z" fill="black"/>
<path d="M236.155 93.7703C238.049 93.4043 240.005 92.5959 241.62 92.2156C243.648 91.7373 245.384 91.6033 247.329 92.3161C248.692 92.816 251.818 93.3828 252.787 94.5356C252.945 94.7246 253.163 94.8681 253.414 94.9303L254.15 95.1264C255.196 95.4182 256.124 95.612 257.133 95.3178C258.028 95.2675 258.812 94.8848 258.905 94.8394C259.018 94.782 259.061 94.7557 259.152 94.6672C259.204 94.6385 259.355 94.6122 259.446 94.6098C259.781 94.6098 260.101 94.4687 260.328 94.2223C261.799 92.6174 262.409 90.9647 262.146 89.3048C261.749 86.8125 259.446 84.9374 257.336 83.6195C257.819 82.4786 257.846 81.0579 257.803 80.1873C258.439 79.3525 258.81 78.2619 258.845 77.0947C259.121 76.1188 259.188 74.7124 259.202 74.0427C259.458 73.5452 259.539 72.9497 259.558 72.5L259.891 71.7179C260.824 69.5031 261.787 67.2118 263.163 65.5543C263.562 65.1548 263.866 64.7554 264.165 64.356C264.375 64.0761 264.581 63.7963 264.847 63.514C265.691 63.0046 266.865 61.8517 267.109 61.6054L267.353 61.3614C269.786 59.979 272.558 58.5965 274.954 57.5704C275.968 57.2308 276.932 56.9103 277.683 56.5635C278.322 56.5133 279.018 56.3195 279.36 56.2167C283.842 56.2908 288.375 59.1897 290.604 63.2916C291.053 64.6454 291.623 65.8317 292.175 66.975C292.522 67.6973 292.859 68.3957 293.115 69.0295C293.445 70.0173 294.239 71.4213 294.545 71.9475C295.253 75.8175 295.957 79.3453 296.641 82.646C296.641 83.3731 296.662 83.9878 296.708 84.5595C296.397 84.5523 296.086 84.5475 295.777 84.5475C291.965 84.5475 289.401 85.2555 287.554 86.9513C286.26 88.6758 285.722 91.4455 287.305 93.5335C288.056 94.2893 289.41 94.6959 290.085 94.8633C290.788 95.478 291.769 96.0473 292.711 96.1979C293.201 96.5304 293.749 96.6954 293.938 96.7457C294.034 96.7768 294.139 96.7911 294.244 96.7911H294.603C295.914 96.7911 297.298 96.5495 298.638 96.3175C300.721 95.954 302.847 95.6431 304.268 96.1764C305.158 96.473 305.761 96.8246 306.983 97.6282C307.509 97.8889 308.406 98.2692 308.889 98.4702C309.836 99.7091 311.431 100.436 313.244 100.436C315.765 100.436 318.466 98.9509 318.748 96.1238C319.162 92.4117 315.878 90.2615 313.704 88.836L311.08 87.4344C310.118 86.7456 308.927 86.2122 307.459 85.8199C307.157 81.4788 306.734 77.1497 305.464 72.4115C305.122 70.3618 303.622 66.3435 303.304 65.5064C303.252 65.174 303.106 64.9061 302.969 64.7099C302.969 64.5234 302.926 64.3416 302.843 64.1742L300.613 59.7398C299.965 58.7687 298.796 57.2834 298.478 56.884C296.6 53.1767 293.95 50.163 290.592 47.9243C290.429 47.8167 290.25 47.7282 289.979 47.6086C289.807 47.4771 289.597 47.3933 289.367 47.3718C289.281 47.3551 289.193 47.3527 289.116 47.3503C288.241 46.9556 287.274 46.5634 286.351 46.5634H285.593C285.39 46.5634 285.184 46.5179 284.971 46.4821C284.608 46.4151 284.237 46.3529 283.856 46.3529C283.668 46.3529 283.479 46.3673 283.481 46.384C282.773 46.384 281.766 46.4581 281.029 46.5132C280.663 46.5395 280.374 46.5634 280.252 46.5634H277.382C271.838 46.5634 267.688 49.015 263.294 51.6125C261.993 52.3826 260.656 53.1719 259.266 53.9086C258.702 54.1908 257.284 55.0112 256.444 56.31C256.313 56.4415 256.138 56.652 255.951 56.884C255.817 57.049 255.585 57.3384 255.447 57.4772C255.325 57.5226 255.212 57.5848 255.11 57.6661C253.526 58.9314 252.699 60.4191 251.9 61.8613C251.687 62.2416 251.474 62.6267 251.311 62.9089L250.838 63.538C246.863 68.8382 245.375 70.821 242.495 77.6926C242.409 78.0346 242.285 78.4197 242.148 78.8335C241.852 79.74 241.5 80.8163 241.393 81.9141C239.092 82.3494 236.987 82.9306 234.983 83.6817C234.896 83.7128 234.815 83.7534 234.739 83.806C234.44 84.007 233.918 84.2103 233.416 84.4064C232.337 84.8297 231.115 85.3105 230.46 86.2911C229.477 87.7621 229.477 90.4457 230.46 91.9238C231.864 94.0214 233.968 94.1912 236.155 93.7703ZM285.591 48.9552C285.349 48.9552 285.103 48.9145 284.854 48.8691C285.1 48.9097 285.349 48.9552 285.591 48.9552ZM283.856 48.7447C283.885 48.7447 283.911 48.7543 283.938 48.7543C283.787 48.7495 283.636 48.7495 283.481 48.7734C283.457 48.7734 283.428 48.7758 283.404 48.7758C283.428 48.7758 283.459 48.7734 283.481 48.7734C283.546 48.7758 283.79 48.7567 283.856 48.7447ZM282.225 48.826C282.283 48.8212 282.331 48.8188 282.388 48.8165C282.333 48.8188 282.278 48.8236 282.225 48.826ZM275.495 49.0724C276.107 49.0006 276.734 48.9552 277.384 48.9552C276.729 48.9552 276.112 49.0126 275.495 49.0724Z" fill="black"/>
<path d="M6.30273 397.571C7.45111 397.571 8.50178 397.852 9.4541 398.412C10.4343 398.972 11.2045 399.742 11.7646 400.722C12.3248 401.675 12.6054 402.725 12.6055 403.874V404.294H10.084V403.874C10.084 403.174 9.91615 402.543 9.58008 401.983C9.24394 401.395 8.78159 400.933 8.19336 400.596C7.6332 400.26 7.00292 400.093 6.30273 400.093C5.63059 400.093 5.00025 400.26 4.41211 400.596C3.82391 400.933 3.36152 401.395 3.02539 401.983C2.68928 402.543 2.52151 403.174 2.52148 403.874V413.118C2.52153 413.79 2.6893 414.42 3.02539 415.009C3.36152 415.597 3.82394 416.059 4.41211 416.395C5.00023 416.731 5.63062 416.899 6.30273 416.899C7.0029 416.899 7.63321 416.731 8.19336 416.395C8.78159 416.059 9.24394 415.597 9.58008 415.009C9.91616 414.42 10.0839 413.79 10.084 413.118V412.697H12.6055V413.118C12.6054 414.266 12.3248 415.331 11.7646 416.311C11.2045 417.263 10.4343 418.02 9.4541 418.58C8.50178 419.14 7.45111 419.42 6.30273 419.42C5.15432 419.42 4.08974 419.14 3.10938 418.58C2.15716 418.02 1.40102 417.263 0.84082 416.311C0.280643 415.331 4.71373e-05 414.266 0 413.118V403.874C2.481e-05 402.725 0.280621 401.675 0.84082 400.722C1.40102 399.742 2.15713 398.972 3.10938 398.412C4.08975 397.852 5.15429 397.571 6.30273 397.571ZM174.467 397.571C175.531 397.571 176.512 397.838 177.408 398.37C178.332 398.874 179.047 399.588 179.551 400.512C180.083 401.409 180.349 402.389 180.349 403.454V404.294H177.828V403.454C177.828 402.529 177.492 401.745 176.819 401.1C176.175 400.428 175.391 400.093 174.467 400.093C173.542 400.093 172.744 400.428 172.071 401.1C171.427 401.745 171.105 402.529 171.105 403.454C171.105 404.154 171.245 404.728 171.525 405.177C171.834 405.597 172.24 405.947 172.744 406.227C173.248 406.479 173.935 406.759 174.803 407.067L175.223 407.193C176.455 407.641 177.45 408.104 178.206 408.58C178.99 409.056 179.607 409.672 180.055 410.428C180.531 411.185 180.77 412.137 180.77 413.286V413.328C180.77 414.392 180.489 415.401 179.929 416.353C179.369 417.277 178.598 418.02 177.618 418.58C176.666 419.14 175.615 419.42 174.467 419.42C173.318 419.42 172.254 419.14 171.273 418.58C170.321 417.992 169.565 417.221 169.005 416.269C168.445 415.289 168.164 414.238 168.164 413.118V412.697H170.686V413.118C170.686 413.79 170.853 414.42 171.189 415.009C171.554 415.569 172.016 416.031 172.576 416.395C173.164 416.731 173.795 416.899 174.467 416.899C175.139 416.899 175.769 416.731 176.357 416.395C176.946 416.059 177.408 415.625 177.744 415.093C178.08 414.532 178.248 413.944 178.248 413.328V413.286C178.248 412.586 178.108 412.025 177.828 411.605C177.548 411.157 177.156 410.793 176.651 410.512C176.147 410.232 175.447 409.939 174.551 409.631L174.089 409.505C172.829 409.085 171.806 408.636 171.021 408.16C170.265 407.656 169.663 407.025 169.215 406.269C168.795 405.485 168.584 404.546 168.584 403.454C168.584 402.389 168.851 401.409 169.383 400.512C169.915 399.616 170.629 398.902 171.525 398.37C172.422 397.838 173.402 397.571 174.467 397.571ZM275.365 397.571C276.43 397.571 277.41 397.838 278.307 398.37C279.231 398.874 279.945 399.588 280.449 400.512C280.981 401.409 281.247 402.389 281.247 403.454V404.294H278.727V403.454C278.727 402.529 278.39 401.745 277.718 401.1C277.074 400.428 276.289 400.093 275.365 400.093C274.441 400.093 273.642 400.428 272.97 401.1C272.325 401.745 272.004 402.529 272.004 403.454C272.004 404.154 272.144 404.728 272.424 405.177C272.732 405.597 273.138 405.947 273.643 406.227C274.147 406.479 274.833 406.759 275.701 407.067L276.121 407.193C277.354 407.641 278.348 408.104 279.104 408.58C279.889 409.056 280.505 409.672 280.953 410.428C281.429 411.185 281.668 412.137 281.668 413.286V413.328C281.668 414.392 281.387 415.401 280.827 416.353C280.267 417.277 279.497 418.02 278.517 418.58C277.564 419.14 276.514 419.42 275.365 419.42C274.217 419.42 273.152 419.14 272.172 418.58C271.22 417.992 270.464 417.221 269.903 416.269C269.343 415.289 269.063 414.238 269.062 413.118V412.697H271.584V413.118C271.584 413.79 271.752 414.42 272.088 415.009C272.452 415.569 272.914 416.031 273.475 416.395C274.063 416.731 274.693 416.899 275.365 416.899C276.037 416.899 276.668 416.731 277.256 416.395C277.844 416.059 278.306 415.625 278.643 415.093C278.979 414.532 279.146 413.944 279.146 413.328V413.286C279.146 412.586 279.007 412.025 278.727 411.605C278.446 411.157 278.054 410.793 277.55 410.512C277.046 410.232 276.345 409.939 275.449 409.631L274.987 409.505C273.727 409.085 272.704 408.636 271.92 408.16C271.164 407.656 270.561 407.025 270.113 406.269C269.693 405.485 269.482 404.546 269.482 403.454C269.482 402.389 269.749 401.409 270.281 400.512C270.813 399.616 271.528 398.902 272.424 398.37C273.32 397.838 274.301 397.571 275.365 397.571ZM376.264 397.571C377.328 397.571 378.309 397.838 379.205 398.37C380.129 398.874 380.844 399.588 381.348 400.512C381.88 401.409 382.146 402.389 382.146 403.454V404.294H379.625V403.454C379.625 402.529 379.288 401.745 378.616 401.1C377.972 400.428 377.188 400.093 376.264 400.093C375.339 400.093 374.54 400.428 373.868 401.1C373.224 401.745 372.902 402.529 372.902 403.454C372.902 404.154 373.042 404.728 373.322 405.177C373.63 405.597 374.037 405.947 374.541 406.227C375.045 406.479 375.731 406.759 376.6 407.067L377.02 407.193C378.252 407.641 379.247 408.104 380.003 408.58C380.787 409.056 381.403 409.672 381.852 410.428C382.328 411.185 382.566 412.137 382.566 413.286V413.328C382.566 414.392 382.286 415.401 381.726 416.353C381.165 417.277 380.395 418.02 379.415 418.58C378.463 419.14 377.412 419.42 376.264 419.42C375.115 419.42 374.051 419.14 373.07 418.58C372.118 417.992 371.362 417.221 370.802 416.269C370.242 415.289 369.961 414.238 369.961 413.118V412.697H372.482V413.118C372.482 413.79 372.65 414.42 372.986 415.009C373.35 415.569 373.813 416.031 374.373 416.395C374.961 416.731 375.592 416.899 376.264 416.899C376.936 416.899 377.566 416.731 378.154 416.395C378.743 416.059 379.205 415.625 379.541 415.093C379.877 414.532 380.045 413.944 380.045 413.328V413.286C380.045 412.586 379.905 412.025 379.625 411.605C379.345 411.157 378.952 410.793 378.448 410.512C377.944 410.232 377.244 409.939 376.348 409.631L375.886 409.505C374.625 409.085 373.603 408.636 372.818 408.16C372.062 407.656 371.46 407.025 371.012 406.269C370.592 405.485 370.381 404.546 370.381 403.454C370.381 402.389 370.647 401.409 371.18 400.512C371.712 399.616 372.426 398.902 373.322 398.37C374.219 397.838 375.199 397.571 376.264 397.571ZM493.979 397.571C495.127 397.571 496.178 397.852 497.13 398.412C498.11 398.972 498.88 399.742 499.44 400.722C500.001 401.675 500.281 402.725 500.281 403.874V413.118C500.281 414.266 500.001 415.331 499.44 416.311C498.88 417.263 498.11 418.02 497.13 418.58C496.178 419.14 495.127 419.42 493.979 419.42C492.83 419.42 491.766 419.14 490.785 418.58C489.833 418.02 489.077 417.263 488.517 416.311C487.956 415.331 487.676 414.266 487.676 413.118V403.874C487.676 402.725 487.956 401.675 488.517 400.722C489.077 399.742 489.833 398.972 490.785 398.412C491.766 397.852 492.83 397.571 493.979 397.571ZM23.1191 397.992C24.2675 397.992 25.3182 398.272 26.2705 398.832C27.2508 399.392 28.0209 400.163 28.5811 401.143C29.1411 402.095 29.4218 403.146 29.4219 404.294V405.554C29.4219 406.703 29.1413 407.767 28.5811 408.748C28.0514 409.648 27.3319 410.37 26.4268 410.92L29.4219 419H26.7744L24.0996 411.782C23.781 411.83 23.4545 411.857 23.1191 411.857H19.3379V419H16.8164V397.992H23.1191ZM47.0781 419H44.5156L43.1289 413.958H36.7422L35.3975 419H32.792L38.2549 397.992H41.6162L47.0781 419ZM52.9707 412.65L55.4492 406.395H58.0547L60.5332 412.652V397.992H63.0547V419H60.3232L56.7695 410.117L53.1807 419H50.4492V397.992H52.9707V412.65ZM69.7871 416.479H79.8711V419H67.2656V397.992H69.7871V416.479ZM114.344 419H111.781L110.395 413.958H104.008L102.663 419H100.058L105.521 397.992H108.882L114.344 419ZM127.799 408.328V397.992H130.32V419H127.799V413.118L120.236 402.908V419H117.715V397.992H120.236L127.799 408.328ZM140.876 407.571L145.245 397.992H147.977L142.095 411.227V419H139.573V411.143L133.691 397.992H136.464L140.876 407.571ZM197.586 400.512H192.544V416.479H197.586V419H184.98V416.479H190.022V400.512H184.98V397.992H197.586V400.512ZM214.402 400.512H209.36V419H206.839V400.512H201.797V397.992H214.402V400.512ZM231.219 400.512H221.135V407.235H231.219V409.757H221.135V416.479H231.219V419H218.613V397.992H231.219V400.512ZM242.993 419H240.472V414.799H242.993V419ZM299.324 419H296.762L295.375 413.958H288.988L287.644 419H285.039L290.501 397.992H293.862L299.324 419ZM308.998 415.89L313.578 397.992H316.141L310.973 419H307.065L301.855 397.992H304.46L308.998 415.89ZM332.117 400.512H322.033V407.235H332.117V409.757H322.033V416.479H332.117V419H319.512V397.992H332.117V400.512ZM366.59 419H364.027L362.641 413.958H356.254L354.909 419H352.305L357.767 397.992H361.128L366.59 419ZM409.914 406.874L413.468 397.992H416.199V419H413.678V404.339L411.199 410.596H408.594L406.115 404.341V419H403.594V397.992H406.325L409.914 406.874ZM433.855 419H431.293L429.906 413.958H423.52L422.175 419H419.57L425.032 397.992H428.394L433.855 419ZM443.529 397.992C444.678 397.992 445.728 398.272 446.681 398.832C447.661 399.392 448.431 400.163 448.991 401.143C449.551 402.095 449.832 403.146 449.832 404.294V405.554C449.832 406.703 449.551 407.767 448.991 408.748C448.462 409.648 447.742 410.37 446.837 410.92L449.832 419H447.185L444.51 411.782C444.191 411.83 443.865 411.857 443.529 411.857H439.748V419H437.227V397.992H443.529ZM456.564 407.235H459.211L464.715 397.992H467.488L461.438 408.496L467.488 419H464.715L459.211 409.757H456.564V419H454.043V397.992H456.564V407.235ZM477.162 397.992C478.31 397.992 479.361 398.272 480.313 398.832C481.294 399.392 482.064 400.163 482.624 401.143C483.184 402.095 483.465 403.146 483.465 404.294V412.697C483.465 413.845 483.184 414.91 482.624 415.89C482.064 416.843 481.294 417.6 480.313 418.16C479.361 418.72 478.31 419 477.162 419H470.859V397.992H477.162ZM507.014 412.65L509.492 406.395H512.098L514.576 412.652V397.992H517.098V419H514.366L510.812 410.117L507.224 419H504.492V397.992H507.014V412.65ZM531.393 408.328V397.992H533.914V419H531.393V413.118L523.83 402.908V419H521.309V397.992H523.83L531.393 408.328ZM545.688 419H543.167V414.799H545.688V419ZM493.979 400.093C493.306 400.093 492.676 400.26 492.088 400.596C491.5 400.933 491.037 401.395 490.701 401.983C490.365 402.543 490.197 403.174 490.197 403.874V413.118C490.197 413.79 490.365 414.42 490.701 415.009C491.037 415.597 491.5 416.059 492.088 416.395C492.676 416.731 493.306 416.899 493.979 416.899C494.679 416.899 495.309 416.731 495.869 416.395C496.457 416.059 496.92 415.597 497.256 415.009C497.592 414.42 497.76 413.79 497.76 413.118V403.874C497.76 403.174 497.592 402.543 497.256 401.983C496.92 401.395 496.457 400.933 495.869 400.596C495.309 400.26 494.679 400.093 493.979 400.093ZM473.381 416.479H477.162C477.862 416.479 478.493 416.31 479.053 415.974C479.641 415.638 480.103 415.177 480.439 414.589C480.776 414 480.943 413.369 480.943 412.697V404.294C480.943 403.594 480.776 402.963 480.439 402.403C480.103 401.815 479.641 401.352 479.053 401.016C478.493 400.68 477.862 400.512 477.162 400.512H473.381V416.479ZM37.2881 411.437H42.582L39.9355 402.067L37.2881 411.437ZM104.554 411.437H109.848L107.201 402.067L104.554 411.437ZM289.534 411.437H294.828L292.182 402.067L289.534 411.437ZM356.8 411.437H362.094L359.447 402.067L356.8 411.437ZM424.065 411.437H429.359L426.713 402.067L424.065 411.437ZM19.3379 409.336H23.1191C23.8193 409.336 24.4496 409.168 25.0098 408.832C25.5979 408.496 26.0604 408.033 26.3965 407.445C26.7325 406.857 26.9004 406.227 26.9004 405.554V404.294C26.9003 403.594 26.7326 402.963 26.3965 402.403C26.0604 401.815 25.598 401.352 25.0098 401.016C24.4496 400.68 23.8193 400.512 23.1191 400.512H19.3379V409.336ZM439.748 409.336H443.529C444.229 409.336 444.86 409.168 445.42 408.832C446.008 408.496 446.471 408.033 446.807 407.445C447.143 406.857 447.311 406.227 447.311 405.554V404.294C447.31 403.594 447.143 402.963 446.807 402.403C446.471 401.815 446.008 401.352 445.42 401.016C444.86 400.68 444.229 400.512 443.529 400.512H439.748V409.336Z" fill="black"/>
<path d="M174.308 313.857C177.371 313.857 180.172 314.605 182.712 316.098C185.326 317.592 187.38 319.646 188.874 322.26C190.368 324.8 191.115 327.601 191.115 330.664V331.784H179.91V330.664C179.91 329.618 179.649 328.685 179.126 327.863C178.678 326.967 178.005 326.295 177.109 325.846C176.288 325.324 175.354 325.061 174.308 325.061C173.263 325.061 172.292 325.324 171.395 325.846C170.574 326.295 169.901 326.967 169.378 327.863C168.93 328.685 168.706 329.618 168.706 330.664V355.314C168.706 356.36 168.93 357.331 169.378 358.227C169.901 359.049 170.574 359.721 171.395 360.244C172.291 360.692 173.263 360.916 174.308 360.916C175.354 360.916 176.288 360.692 177.109 360.244C178.005 359.721 178.678 359.049 179.126 358.227C179.649 357.331 179.91 356.36 179.91 355.314V354.193H191.115V355.314C191.115 358.377 190.368 361.215 188.874 363.829C187.38 366.368 185.326 368.386 182.712 369.88C180.172 371.374 177.371 372.121 174.308 372.121C171.246 372.121 168.407 371.374 165.793 369.88C163.253 368.386 161.236 366.369 159.742 363.829C158.248 361.215 157.501 358.376 157.501 355.314V330.664C157.501 327.601 158.248 324.8 159.742 322.26C161.236 319.646 163.253 317.592 165.793 316.098C168.407 314.604 171.246 313.857 174.308 313.857ZM213.55 359.796H235.959V371H202.345V314.977H213.55V359.796ZM258.393 371H247.189V314.977H258.393V371ZM286.418 314.977C289.48 314.977 292.281 315.725 294.821 317.219C297.435 318.712 299.489 320.766 300.983 323.381C302.477 325.92 303.224 328.722 303.224 331.784V337.386C303.224 340.449 302.477 343.288 300.983 345.902C299.489 348.442 297.435 350.459 294.821 351.953C292.281 353.447 289.48 354.193 286.418 354.193H280.815V371H269.611V314.977H286.418ZM331.261 314.977C334.324 314.977 337.125 315.725 339.665 317.219C342.279 318.712 344.333 320.766 345.827 323.381C347.321 325.92 348.068 328.722 348.068 331.784V337.386C348.068 340.449 347.321 343.288 345.827 345.902C344.333 348.442 342.279 350.459 339.665 351.953C337.125 353.447 334.324 354.193 331.261 354.193H325.659V371H314.455V314.977H331.261ZM376.385 335.051L383.612 314.977H395.6L381.931 352.227V371H370.726V351.796L357.057 314.977H369.158L376.385 335.051ZM280.815 342.989H286.418C287.463 342.989 288.397 342.764 289.219 342.316C290.115 341.793 290.787 341.121 291.235 340.3C291.758 339.403 292.019 338.432 292.019 337.386V331.784C292.019 330.738 291.758 329.805 291.235 328.983C290.787 328.087 290.115 327.415 289.219 326.967C288.397 326.444 287.463 326.182 286.418 326.182H280.815V342.989ZM325.659 342.989H331.261C332.307 342.989 333.241 342.764 334.062 342.316C334.959 341.793 335.631 341.121 336.079 340.3C336.602 339.403 336.863 338.432 336.863 337.386V331.784C336.863 330.738 336.602 329.805 336.079 328.983C335.631 328.087 334.959 327.415 334.062 326.967C333.241 326.444 332.307 326.182 331.261 326.182H325.659V342.989Z" fill="black"/>
<defs>
<linearGradient id="paint0_linear_1_59" x1="274.899" y1="0" x2="274.899" y2="256" gradientUnits="userSpaceOnUse">
<stop stop-color="#FFD268"/>
<stop offset="1" stop-color="#F6BD41"/>
</linearGradient>
</defs>
</svg>
