<svg width="546" height="106" viewBox="0 0 546 106" fill="none" xmlns="http://www.w3.org/2000/svg">
<path d="M6.30273 83.7139C7.45111 83.7139 8.50178 83.9945 9.4541 84.5547C10.4343 85.1149 11.2045 85.885 11.7646 86.8652C12.3248 87.8176 12.6054 88.8682 12.6055 90.0166V90.4365H10.084V90.0166C10.084 89.3164 9.91615 88.6861 9.58008 88.126C9.24394 87.5377 8.78159 87.0754 8.19336 86.7393C7.6332 86.4032 7.00292 86.2354 6.30273 86.2354C5.63059 86.2354 5.00025 86.4033 4.41211 86.7393C3.82391 87.0754 3.36152 87.5378 3.02539 88.126C2.68928 88.6862 2.52151 89.3164 2.52148 90.0166V99.2607C2.52153 99.9329 2.6893 100.563 3.02539 101.151C3.36152 101.74 3.82394 102.202 4.41211 102.538C5.00023 102.874 5.63062 103.042 6.30273 103.042C7.0029 103.042 7.63321 102.874 8.19336 102.538C8.78159 102.202 9.24394 101.74 9.58008 101.151C9.91616 100.563 10.0839 99.9329 10.084 99.2607V98.8398H12.6055V99.2607C12.6054 100.409 12.3248 101.474 11.7646 102.454C11.2045 103.406 10.4343 104.163 9.4541 104.723C8.50178 105.283 7.45111 105.562 6.30273 105.562C5.15432 105.562 4.08974 105.283 3.10938 104.723C2.15716 104.163 1.40102 103.406 0.84082 102.454C0.280643 101.474 4.71373e-05 100.409 0 99.2607V90.0166C2.481e-05 88.8682 0.280621 87.8176 0.84082 86.8652C1.40102 85.885 2.15713 85.1148 3.10938 84.5547C4.08975 83.9945 5.15429 83.7139 6.30273 83.7139ZM174.467 83.7139C175.531 83.7139 176.512 83.9805 177.408 84.5127C178.332 85.0169 179.047 85.7311 179.551 86.6553C180.083 87.5516 180.349 88.5323 180.349 89.5967V90.4365H177.828V89.5967C177.828 88.6723 177.492 87.8874 176.819 87.2432C176.175 86.5712 175.391 86.2354 174.467 86.2354C173.542 86.2354 172.744 86.5709 172.071 87.2432C171.427 87.8874 171.105 88.6723 171.105 89.5967C171.105 90.2969 171.245 90.8712 171.525 91.3193C171.834 91.7395 172.24 92.09 172.744 92.3701C173.248 92.6222 173.935 92.9019 174.803 93.21L175.223 93.3359C176.455 93.7841 177.45 94.2465 178.206 94.7227C178.99 95.1988 179.607 95.815 180.055 96.5713C180.531 97.3276 180.77 98.2803 180.77 99.4287V99.4707C180.77 100.535 180.489 101.544 179.929 102.496C179.369 103.42 178.598 104.163 177.618 104.723C176.666 105.283 175.615 105.562 174.467 105.562C173.318 105.562 172.254 105.283 171.273 104.723C170.321 104.135 169.565 103.364 169.005 102.412C168.445 101.432 168.164 100.381 168.164 99.2607V98.8398H170.686V99.2607C170.686 99.9329 170.853 100.563 171.189 101.151C171.554 101.712 172.016 102.174 172.576 102.538C173.164 102.874 173.795 103.042 174.467 103.042C175.139 103.042 175.769 102.874 176.357 102.538C176.946 102.202 177.408 101.768 177.744 101.235C178.08 100.675 178.248 100.087 178.248 99.4707V99.4287C178.248 98.7286 178.108 98.1682 177.828 97.748C177.548 97.2999 177.156 96.9354 176.651 96.6553C176.147 96.3752 175.447 96.0815 174.551 95.7734L174.089 95.6475C172.829 95.2273 171.806 94.7789 171.021 94.3027C170.265 93.7986 169.663 93.1682 169.215 92.4121C168.795 91.6278 168.584 90.6891 168.584 89.5967C168.584 88.5323 168.851 87.5516 169.383 86.6553C169.915 85.759 170.629 85.0449 171.525 84.5127C172.422 83.9805 173.402 83.7139 174.467 83.7139ZM275.365 83.7139C276.43 83.7139 277.41 83.9805 278.307 84.5127C279.231 85.0169 279.945 85.7311 280.449 86.6553C280.981 87.5516 281.247 88.5323 281.247 89.5967V90.4365H278.727V89.5967C278.727 88.6723 278.39 87.8874 277.718 87.2432C277.074 86.5712 276.289 86.2354 275.365 86.2354C274.441 86.2354 273.642 86.5709 272.97 87.2432C272.325 87.8874 272.004 88.6723 272.004 89.5967C272.004 90.2969 272.144 90.8712 272.424 91.3193C272.732 91.7395 273.138 92.09 273.643 92.3701C274.147 92.6222 274.833 92.9019 275.701 93.21L276.121 93.3359C277.354 93.7841 278.348 94.2465 279.104 94.7227C279.889 95.1988 280.505 95.815 280.953 96.5713C281.429 97.3276 281.668 98.2803 281.668 99.4287V99.4707C281.668 100.535 281.387 101.544 280.827 102.496C280.267 103.42 279.497 104.163 278.517 104.723C277.564 105.283 276.514 105.562 275.365 105.562C274.217 105.562 273.152 105.283 272.172 104.723C271.22 104.135 270.464 103.364 269.903 102.412C269.343 101.432 269.063 100.381 269.062 99.2607V98.8398H271.584V99.2607C271.584 99.9329 271.752 100.563 272.088 101.151C272.452 101.712 272.914 102.174 273.475 102.538C274.063 102.874 274.693 103.042 275.365 103.042C276.037 103.042 276.668 102.874 277.256 102.538C277.844 102.202 278.306 101.768 278.643 101.235C278.979 100.675 279.146 100.087 279.146 99.4707V99.4287C279.146 98.7286 279.007 98.1682 278.727 97.748C278.446 97.2999 278.054 96.9354 277.55 96.6553C277.046 96.3752 276.345 96.0815 275.449 95.7734L274.987 95.6475C273.727 95.2273 272.704 94.7789 271.92 94.3027C271.164 93.7986 270.561 93.1682 270.113 92.4121C269.693 91.6278 269.482 90.6891 269.482 89.5967C269.482 88.5323 269.749 87.5516 270.281 86.6553C270.813 85.759 271.528 85.0449 272.424 84.5127C273.32 83.9805 274.301 83.7139 275.365 83.7139ZM376.264 83.7139C377.328 83.7139 378.309 83.9805 379.205 84.5127C380.129 85.0169 380.844 85.7311 381.348 86.6553C381.88 87.5516 382.146 88.5323 382.146 89.5967V90.4365H379.625V89.5967C379.625 88.6723 379.288 87.8874 378.616 87.2432C377.972 86.5712 377.188 86.2354 376.264 86.2354C375.339 86.2354 374.54 86.5709 373.868 87.2432C373.224 87.8874 372.902 88.6723 372.902 89.5967C372.902 90.2969 373.042 90.8712 373.322 91.3193C373.63 91.7395 374.037 92.09 374.541 92.3701C375.045 92.6222 375.731 92.9019 376.6 93.21L377.02 93.3359C378.252 93.7841 379.247 94.2465 380.003 94.7227C380.787 95.1988 381.403 95.815 381.852 96.5713C382.328 97.3276 382.566 98.2803 382.566 99.4287V99.4707C382.566 100.535 382.286 101.544 381.726 102.496C381.165 103.42 380.395 104.163 379.415 104.723C378.463 105.283 377.412 105.562 376.264 105.562C375.115 105.562 374.051 105.283 373.07 104.723C372.118 104.135 371.362 103.364 370.802 102.412C370.242 101.432 369.961 100.381 369.961 99.2607V98.8398H372.482V99.2607C372.482 99.9329 372.65 100.563 372.986 101.151C373.35 101.712 373.813 102.174 374.373 102.538C374.961 102.874 375.592 103.042 376.264 103.042C376.936 103.042 377.566 102.874 378.154 102.538C378.743 102.202 379.205 101.768 379.541 101.235C379.877 100.675 380.045 100.087 380.045 99.4707V99.4287C380.045 98.7286 379.905 98.1682 379.625 97.748C379.345 97.2999 378.952 96.9354 378.448 96.6553C377.944 96.3752 377.244 96.0815 376.348 95.7734L375.886 95.6475C374.625 95.2273 373.603 94.7789 372.818 94.3027C372.062 93.7986 371.46 93.1682 371.012 92.4121C370.592 91.6278 370.381 90.6891 370.381 89.5967C370.381 88.5323 370.647 87.5516 371.18 86.6553C371.712 85.759 372.426 85.0449 373.322 84.5127C374.219 83.9805 375.199 83.7139 376.264 83.7139ZM493.979 83.7139C495.127 83.7139 496.178 83.9945 497.13 84.5547C498.11 85.1149 498.88 85.885 499.44 86.8652C500.001 87.8176 500.281 88.8682 500.281 90.0166V99.2607C500.281 100.409 500.001 101.474 499.44 102.454C498.88 103.406 498.11 104.163 497.13 104.723C496.178 105.283 495.127 105.562 493.979 105.562C492.83 105.562 491.766 105.283 490.785 104.723C489.833 104.163 489.077 103.406 488.517 102.454C487.956 101.474 487.676 100.409 487.676 99.2607V90.0166C487.676 88.8682 487.956 87.8176 488.517 86.8652C489.077 85.885 489.833 85.1148 490.785 84.5547C491.766 83.9945 492.83 83.7139 493.979 83.7139ZM23.1191 84.1348C24.2675 84.1348 25.3182 84.4144 26.2705 84.9746C27.2508 85.5348 28.0209 86.3058 28.5811 87.2861C29.1411 88.2383 29.4218 89.2884 29.4219 90.4365V91.6973C29.4219 92.8457 29.1413 93.9102 28.5811 94.8906C28.0514 95.791 27.3319 96.5126 26.4268 97.0625L29.4219 105.143H26.7744L24.0996 97.9248C23.781 97.9726 23.4545 98 23.1191 98H19.3379V105.143H16.8164V84.1348H23.1191ZM47.0781 105.143H44.5156L43.1289 100.101H36.7422L35.3975 105.143H32.792L38.2549 84.1348H41.6162L47.0781 105.143ZM52.9707 98.793L55.4492 92.5381H58.0547L60.5332 98.7949V84.1348H63.0547V105.143H60.3232L56.7695 96.2598L53.1807 105.143H50.4492V84.1348H52.9707V98.793ZM69.7871 102.622H79.8711V105.143H67.2656V84.1348H69.7871V102.622ZM114.344 105.143H111.781L110.395 100.101H104.008L102.663 105.143H100.058L105.521 84.1348H108.882L114.344 105.143ZM127.799 94.4707V84.1348H130.32V105.143H127.799V99.2607L120.236 89.0508V105.143H117.715V84.1348H120.236L127.799 94.4707ZM140.876 93.7139L145.245 84.1348H147.977L142.095 97.3701V105.143H139.573V97.2861L133.691 84.1348H136.464L140.876 93.7139ZM197.586 86.6553H192.544V102.622H197.586V105.143H184.98V102.622H190.022V86.6553H184.98V84.1348H197.586V86.6553ZM214.402 86.6553H209.36V105.143H206.839V86.6553H201.797V84.1348H214.402V86.6553ZM231.219 86.6553H221.135V93.3779H231.219V95.8994H221.135V102.622H231.219V105.143H218.613V84.1348H231.219V86.6553ZM242.993 105.143H240.472V100.941H242.993V105.143ZM299.324 105.143H296.762L295.375 100.101H288.988L287.644 105.143H285.039L290.501 84.1348H293.862L299.324 105.143ZM308.998 102.033L313.578 84.1348H316.141L310.973 105.143H307.065L301.855 84.1348H304.46L308.998 102.033ZM332.117 86.6553H322.033V93.3779H332.117V95.8994H322.033V102.622H332.117V105.143H319.512V84.1348H332.117V86.6553ZM366.59 105.143H364.027L362.641 100.101H356.254L354.909 105.143H352.305L357.767 84.1348H361.128L366.59 105.143ZM409.914 93.0166L413.468 84.1348H416.199V105.143H413.678V90.4814L411.199 96.7393H408.594L406.115 90.4834V105.143H403.594V84.1348H406.325L409.914 93.0166ZM433.855 105.143H431.293L429.906 100.101H423.52L422.175 105.143H419.57L425.032 84.1348H428.394L433.855 105.143ZM443.529 84.1348C444.678 84.1348 445.728 84.4144 446.681 84.9746C447.661 85.5348 448.431 86.3058 448.991 87.2861C449.551 88.2383 449.832 89.2883 449.832 90.4365V91.6973C449.832 92.8457 449.551 93.9102 448.991 94.8906C448.462 95.791 447.742 96.5126 446.837 97.0625L449.832 105.143H447.185L444.51 97.9248C444.191 97.9726 443.865 98 443.529 98H439.748V105.143H437.227V84.1348H443.529ZM456.564 93.3779H459.211L464.715 84.1348H467.488L461.438 94.6387L467.488 105.143H464.715L459.211 95.8994H456.564V105.143H454.043V84.1348H456.564V93.3779ZM477.162 84.1348C478.31 84.1348 479.361 84.4144 480.313 84.9746C481.294 85.5348 482.064 86.3058 482.624 87.2861C483.184 88.2383 483.465 89.2883 483.465 90.4365V98.8398C483.465 99.9882 483.184 101.053 482.624 102.033C482.064 102.986 481.294 103.743 480.313 104.303C479.361 104.863 478.31 105.143 477.162 105.143H470.859V84.1348H477.162ZM507.014 98.793L509.492 92.5381H512.098L514.576 98.7949V84.1348H517.098V105.143H514.366L510.812 96.2598L507.224 105.143H504.492V84.1348H507.014V98.793ZM531.393 94.4707V84.1348H533.914V105.143H531.393V99.2607L523.83 89.0508V105.143H521.309V84.1348H523.83L531.393 94.4707ZM545.688 105.143H543.167V100.941H545.688V105.143ZM493.979 86.2354C493.306 86.2354 492.676 86.4033 492.088 86.7393C491.5 87.0754 491.037 87.5378 490.701 88.126C490.365 88.6862 490.197 89.3164 490.197 90.0166V99.2607C490.197 99.9329 490.365 100.563 490.701 101.151C491.037 101.74 491.5 102.202 492.088 102.538C492.676 102.874 493.306 103.042 493.979 103.042C494.679 103.042 495.309 102.874 495.869 102.538C496.457 102.202 496.92 101.74 497.256 101.151C497.592 100.563 497.76 99.9329 497.76 99.2607V90.0166C497.76 89.3164 497.592 88.6861 497.256 88.126C496.92 87.5377 496.457 87.0754 495.869 86.7393C495.309 86.4032 494.679 86.2354 493.979 86.2354ZM473.381 102.622H477.162C477.862 102.622 478.493 102.453 479.053 102.117C479.641 101.781 480.103 101.32 480.439 100.731C480.776 100.143 480.943 99.5121 480.943 98.8398V90.4365C480.943 89.7364 480.776 89.106 480.439 88.5459C480.103 87.9577 479.641 87.4953 479.053 87.1592C478.493 86.8231 477.862 86.6553 477.162 86.6553H473.381V102.622ZM37.2881 97.5801H42.582L39.9355 88.21L37.2881 97.5801ZM104.554 97.5801H109.848L107.201 88.21L104.554 97.5801ZM289.534 97.5801H294.828L292.182 88.21L289.534 97.5801ZM356.8 97.5801H362.094L359.447 88.21L356.8 97.5801ZM424.065 97.5801H429.359L426.713 88.21L424.065 97.5801ZM19.3379 95.4785H23.1191C23.8193 95.4785 24.4496 95.3107 25.0098 94.9746C25.5979 94.6385 26.0604 94.1761 26.3965 93.5879C26.7325 92.9997 26.9004 92.3694 26.9004 91.6973V90.4365C26.9003 89.7364 26.7326 89.106 26.3965 88.5459C26.0604 87.9577 25.598 87.4953 25.0098 87.1592C24.4496 86.8231 23.8193 86.6553 23.1191 86.6553H19.3379V95.4785ZM439.748 95.4785H443.529C444.229 95.4785 444.86 95.3107 445.42 94.9746C446.008 94.6385 446.471 94.1761 446.807 93.5879C447.143 92.9997 447.311 92.3694 447.311 91.6973V90.4365C447.31 89.7364 447.143 89.106 446.807 88.5459C446.471 87.9577 446.008 87.4953 445.42 87.1592C444.86 86.8231 444.229 86.6553 443.529 86.6553H439.748V95.4785Z" fill="black"/>
<path d="M174.308 0C177.371 6.60567e-05 180.172 0.747346 182.712 2.24121C185.326 3.73512 187.38 5.78909 188.874 8.40332C190.368 10.943 191.115 13.7441 191.115 16.8066V17.9268H179.91V16.8066C179.91 15.761 179.649 14.8275 179.126 14.0059C178.678 13.1096 178.005 12.4374 177.109 11.9893C176.288 11.4664 175.354 11.2042 174.308 11.2041C173.263 11.2041 172.292 11.4664 171.395 11.9893C170.574 12.4374 169.901 13.1095 169.378 14.0059C168.93 14.8274 168.706 15.7611 168.706 16.8066V41.457C168.706 42.5026 168.93 43.4739 169.378 44.3701C169.901 45.1917 170.574 45.8639 171.395 46.3867C172.291 46.8347 173.263 47.0586 174.308 47.0586C175.354 47.0585 176.288 46.8348 177.109 46.3867C178.005 45.8639 178.678 45.1916 179.126 44.3701C179.649 43.4739 179.91 42.5026 179.91 41.457V40.3359H191.115V41.457C191.115 44.5193 190.368 47.3575 188.874 49.9717C187.38 52.5113 185.326 54.5285 182.712 56.0225C180.172 57.5163 177.371 58.2636 174.308 58.2637C171.246 58.2637 168.407 57.5163 165.793 56.0225C163.253 54.5285 161.236 52.5114 159.742 49.9717C158.248 47.3575 157.501 44.5193 157.501 41.457V16.8066C157.501 13.7441 158.248 10.943 159.742 8.40332C161.236 5.78894 163.253 3.73514 165.793 2.24121C168.407 0.747282 171.246 0 174.308 0ZM213.55 45.9385H235.959V57.1426H202.345V1.12012H213.55V45.9385ZM258.393 57.1426H247.189V1.12012H258.393V57.1426ZM286.418 1.12012C289.48 1.12018 292.281 1.86746 294.821 3.36133C297.435 4.85519 299.489 6.90928 300.983 9.52344C302.477 12.063 303.224 14.8644 303.224 17.9268V23.5293C303.224 26.5919 302.477 29.4305 300.983 32.0449C299.489 34.5845 297.435 36.6018 294.821 38.0957C292.281 39.5896 289.48 40.3359 286.418 40.3359H280.815V57.1426H269.611V1.12012H286.418ZM331.261 1.12012C334.324 1.12018 337.125 1.86746 339.665 3.36133C342.279 4.85519 344.333 6.90928 345.827 9.52344C347.321 12.063 348.068 14.8644 348.068 17.9268V23.5293C348.068 26.5919 347.321 29.4305 345.827 32.0449C344.333 34.5845 342.279 36.6018 339.665 38.0957C337.125 39.5896 334.324 40.3359 331.261 40.3359H325.659V57.1426H314.455V1.12012H331.261ZM376.385 21.1934L383.612 1.12012H395.6L381.931 38.3701V57.1426H370.726V37.9385L357.057 1.12012H369.158L376.385 21.1934ZM280.815 29.1318H286.418C287.463 29.1318 288.397 28.9071 289.219 28.459C290.115 27.9361 290.787 27.264 291.235 26.4424C291.758 25.546 292.019 24.575 292.019 23.5293V17.9268C292.019 16.8812 291.758 15.9475 291.235 15.126C290.787 14.2297 290.115 13.5575 289.219 13.1094C288.397 12.5866 287.463 12.3253 286.418 12.3252H280.815V29.1318ZM325.659 29.1318H331.261C332.307 29.1318 333.241 28.9071 334.062 28.459C334.959 27.9361 335.631 27.264 336.079 26.4424C336.602 25.546 336.863 24.575 336.863 23.5293V17.9268C336.863 16.8812 336.602 15.9475 336.079 15.126C335.631 14.2297 334.959 13.5575 334.062 13.1094C333.241 12.5866 332.307 12.3253 331.261 12.3252H325.659V29.1318Z" fill="black"/>
</svg>
