<svg width="1024" height="1024" viewBox="0 0 1024 1024" fill="none" xmlns="http://www.w3.org/2000/svg">
<path d="M0 424C0 275.586 0 201.379 28.8833 144.693C54.2897 94.8296 94.8296 54.2897 144.693 28.8833C201.379 0 275.586 0 424 0H600C748.414 0 822.621 0 879.307 28.8833C929.17 54.2897 969.71 94.8296 995.117 144.693C1024 201.379 1024 275.586 1024 424V600C1024 748.414 1024 822.621 995.117 879.307C969.71 929.17 929.17 969.71 879.307 995.117C822.621 1024 748.414 1024 600 1024H424C275.586 1024 201.379 1024 144.693 995.117C94.8296 969.71 54.2897 929.17 28.8833 879.307C0 822.621 0 748.414 0 600V424Z" fill="url(#paint0_linear_1_26)"/>
<path d="M671.015 537.836C672.763 536.097 675.436 532.143 676.056 531.208C677.073 529.846 678.14 528.494 679.228 527.132C683.05 522.283 687.401 516.794 690.125 509.953C690.674 508.316 691.375 506.456 692.036 504.707C693.795 500.072 694.567 497.948 694.567 496.128V467.157C694.567 461.465 691.152 456.393 688.133 451.92L687.563 451.147C686.12 448.281 683.192 444.662 681.912 443.147C675.457 427.747 654.801 421.851 647.919 419.9C644.961 419.056 642.013 419.778 639.615 419.89C638.08 419.961 636.687 420.022 635.386 420.022H626.237C623.249 420.022 615.787 419.717 615.777 419.707C615.32 419.696 614.964 419.717 614.568 419.808L610.624 420.53C603.996 421.709 597.145 422.929 591.93 426.944C590.232 427.798 588.525 428.926 586.827 430.085C585.485 430.99 584.143 431.915 582.802 432.586C581.409 433.277 580.423 434.558 580.098 436.042C579.783 436.489 579.091 437.252 578.42 437.882C576.926 439.376 573.917 442.283 573.846 442.334C572.677 443.503 572.016 444.855 571.437 446.268C570.044 447.173 569.089 448.698 569.089 450.436C568.774 451.066 568.367 451.879 568.082 452.855C566.842 454.664 565.887 456.962 565.328 458.517C564.687 459.371 564.281 460.265 564.088 461.262C563.508 462.095 563.203 463.102 563.203 464.128C563.203 466.365 563.102 467.635 563 468.337C562.532 468.845 562.166 469.455 561.943 470.146C559.991 476.021 561.628 482.812 563.274 489.399C563.407 490.547 563.711 492.326 564.067 494.095C564.362 495.579 564.687 497.043 564.728 497.683C564.728 499.269 565.246 500.834 565.755 502.339C565.958 502.959 566.192 503.559 566.253 503.782C566.253 505.775 567.157 508.164 567.91 509.79C568.255 511.793 569.16 513.805 569.495 514.334C571.427 521.104 577.282 537.754 589.622 545.968L592.57 548.194C596.281 550.989 603.081 552.636 603.081 555.025C603.081 555.858 603.081 556.682 603.081 557.515C603.081 557.515 603.081 573.891 603.081 573.901C603.081 605.352 596.89 633.754 583.412 663.771C580.738 671.771 576.276 685.159 569.872 690.272C565.531 693.535 555.915 698.15 551.737 700.051C550.456 700.173 549.206 700.234 548.006 700.234C520.601 700.234 513.221 667.827 509.348 633.357C509.348 625.622 509.348 617.632 507.824 610.486C507.824 604.763 506.736 597.83 498.919 595.269C496.032 593.825 491.62 594.018 488.54 594.547C486.426 593.49 484.22 592.941 481.953 592.941C472.073 592.941 464.246 603.208 462.599 613.535C462.599 620.478 463.737 627.146 465.059 634.872L465.649 637.942C465.649 640.747 466.584 646.033 467.061 648.503C465.638 654.755 465.689 659.838 467.224 666.181C467.417 668.163 468.18 671.487 468.739 673.581C470.426 688.778 476.983 704.391 486.314 715.492C487.737 718.206 491.153 723.725 496.896 727.568C497.455 727.934 498.065 728.198 498.716 728.32C499.204 728.635 500.068 729.347 500.566 729.824C511.991 742.195 523.6 747.715 538.217 747.715C546.97 747.715 556.26 745.702 565.379 743.405C568.774 742.267 572.504 741.575 576.448 740.843C582.598 739.705 588.951 738.526 595.559 735.181C606.486 727.893 614.425 713.957 617.109 704.249C620.047 698.374 622.751 687.06 623.472 683.939C633.363 664.869 635.487 640.646 638.639 619.695C641.149 603.035 635.213 569.968 647.482 558.095C654.7 551.071 663.513 545.307 671.015 537.836ZM646.252 469.699C650.085 475.615 651.406 483.869 650.115 490.08C647.167 504.23 623.981 506.141 613.358 499.676C609.353 497.256 608.621 494.939 608.428 493.404C606.273 476.804 615.635 462.969 632.885 462.207C638.811 461.933 643.284 465.114 646.252 469.699ZM684.402 495.782C684.402 494.186 684.402 491.564 684.402 491.564V490.039C684.402 482.415 684.402 477.841 684.402 471.742C684.402 470.217 684.402 467.178 684.402 467.168L684.433 495.691C684.433 495.711 684.402 495.752 684.402 495.782Z" fill="black"/>
<path d="M696.163 608.718C693.052 605.516 688.885 603.828 684.087 603.828C683.487 603.828 682.867 603.849 682.654 603.889C664.519 603.889 662.394 618.751 660.87 629.485C658.979 640.819 658.786 652.652 658.603 664.108C658.481 671.843 658.359 679.142 657.749 686.735C657.749 696.9 656.519 712.067 655.635 715.818C655.187 716.458 654.872 717.22 654.75 718.044C654.364 720.768 654.069 723.492 653.774 726.217C652.931 734.054 652.138 741.464 649.007 748.773C648.733 749.403 648.59 750.095 648.59 750.776C648.59 752.941 646.252 757.434 645.124 758.633C643.68 759.558 642.654 761.215 642.491 762.943C642.45 763.462 641.647 764.753 640.621 765.82C638.801 768.005 636.982 770.272 635.132 772.57C629.398 779.716 623.462 787.116 616.529 792.92C612.9 796.549 604.799 802.496 602.522 804.143L590.253 808.28C541.724 816.961 501.054 811.543 468.729 792.148C464.978 789.901 461.328 788.01 457.821 786.201C447.422 780.834 439.209 776.595 434.106 765.373C425.018 746.059 424.581 727.162 424.114 707.157C423.982 701.383 423.849 695.508 423.514 689.764C423.514 681.104 422.63 672.839 421.766 664.829C420.932 656.748 420.109 649.104 420.109 640.982V550.715C426.218 549.455 428.607 547.961 431.86 545.704L434.269 543.935C437.125 541.079 441.506 536.881 441.486 536.83C453.166 528.474 465.638 515.016 465.638 502.238C465.638 501.313 466.726 499.432 467.6 497.918C469.166 495.214 470.934 492.164 470.934 488.505V482.406C470.934 478.553 469.013 475.717 467.458 473.44C466.614 472.21 465.75 470.929 465.75 470.208C465.75 469.364 465.75 466.945 462.009 463.112C460.474 455.326 456.815 445.273 448.164 437.933C446.436 435.026 443.824 432.515 442.025 430.797L441.222 430.035C439.626 428.429 437.156 427.046 435.804 426.365C434.411 425.003 433.069 423.753 432.713 423.448C426.858 419.057 419.885 414.33 412.912 412.592C407.911 410.925 400.002 409.939 399.047 409.857L392.175 409.837C384.927 409.837 377.812 410.193 370.3 414.706C365.837 417.684 360.582 423.682 358.965 425.562C341.034 438.472 321.446 457.745 326.935 492.53C328.795 503.702 332.455 512.708 338.127 520.057C339.276 522.944 341.359 526.167 343.21 529.033C344.084 530.395 344.897 531.575 345.283 532.357C345.375 532.754 345.507 533.13 345.69 533.496C349.441 540.998 359.901 548.022 366.935 549.76C368.358 550.228 370.188 550.705 372.068 551.142C372.272 555.747 372.78 560.342 373.237 564.51C373.695 568.677 374.122 572.459 374.122 575.417C374.122 584.616 374.122 594.131 375.646 603.025C376.114 617.47 376.002 632.382 375.89 646.796C375.657 679.803 375.402 713.927 381.837 747.187L382.671 751.406C387.174 774.176 392.277 799.995 409.069 818.323C444.109 854.948 495.453 858.008 540.82 858.008C549.734 858.008 557.897 856.798 566.527 855.507C571.589 854.755 576.824 853.972 582.497 853.403C582.873 853.372 583.249 853.291 583.605 853.179C587.528 851.858 597.002 848.33 599.777 847.293C603.366 847.06 607.726 845.637 612.016 844.214C614.751 843.848 617.922 842.16 619.986 840.371C647.574 826.384 671.502 801.215 685.957 770.587C689.007 761.439 692.158 751.965 693.815 741.617C693.815 735.904 695.279 722.679 695.258 722.679C700.656 692.102 702.963 668.59 702.963 644.031C702.963 643.076 702.994 641.917 703.035 640.606C703.329 631.61 703.777 616.565 696.163 608.718ZM413.471 462.055C420.17 470.421 419.184 487.824 416.307 496.403C414.447 501.964 409.354 504.769 401.181 504.769C397.725 504.769 393.852 504.2 390.305 503.173C384.734 501.547 381.725 499.727 379.906 496.932C373.644 487.224 373.552 475.768 379.255 465.684C384.439 456.515 402.543 453.344 411.092 459.738C411.987 460.398 412.769 461.181 413.471 462.055ZM409.944 546.456C409.944 546.446 409.944 546.446 409.944 546.456ZM398.426 419.982C398.487 419.992 398.63 420.012 398.711 420.022C398.315 420.022 397.928 420.022 397.532 420.022L398.426 419.982Z" fill="black"/>
<path d="M347.337 366.524C355.387 364.969 363.702 361.533 370.564 359.917C379.184 357.883 386.564 357.314 394.828 360.343C400.622 362.468 413.908 364.877 418.025 369.777C418.696 370.58 419.621 371.19 420.688 371.454L423.819 372.287C428.261 373.528 432.205 374.351 436.495 373.101C440.297 372.887 443.631 371.261 444.027 371.068C444.505 370.824 444.688 370.712 445.074 370.336C445.298 370.214 445.938 370.102 446.325 370.092C447.748 370.092 449.11 369.492 450.076 368.445C456.327 361.624 458.919 354.6 457.801 347.546C456.114 336.953 446.325 328.984 437.359 323.383C439.412 318.534 439.524 312.496 439.341 308.796C442.045 305.248 443.621 300.613 443.773 295.652C444.942 291.505 445.227 285.528 445.288 282.682C446.375 280.567 446.721 278.036 446.802 276.125L448.215 272.801C452.18 263.388 456.276 253.65 462.121 246.606C463.819 244.908 465.11 243.211 466.38 241.513C467.275 240.324 468.149 239.134 469.277 237.935C472.866 235.77 477.857 230.87 478.894 229.823L479.93 228.786C490.268 222.911 502.05 217.035 512.235 212.674C516.545 211.231 520.642 209.869 523.834 208.395C526.548 208.181 529.506 207.358 530.959 206.921C550.009 207.236 569.272 219.556 578.746 236.989C580.657 242.743 583.076 247.785 585.424 252.644C586.898 255.714 588.331 258.682 589.419 261.376C590.822 265.574 594.197 271.541 595.498 273.777C598.507 290.224 601.495 305.218 604.402 319.246C604.402 322.336 604.494 324.948 604.687 327.378C603.366 327.347 602.044 327.327 600.733 327.327C584.53 327.327 573.633 330.336 565.785 337.543C560.286 344.872 557.999 356.643 564.728 365.517C567.92 368.73 573.673 370.458 576.54 371.169C579.528 373.782 583.696 376.201 587.701 376.841C589.785 378.254 592.113 378.956 592.916 379.169C593.322 379.301 593.77 379.362 594.217 379.362H595.742C601.312 379.362 607.198 378.336 612.89 377.35C621.744 375.805 630.781 374.483 636.819 376.75C640.6 378.01 643.162 379.505 648.356 382.92C650.593 384.028 654.405 385.644 656.458 386.498C660.483 391.764 667.264 394.854 674.969 394.854C685.683 394.854 697.159 388.542 698.359 376.526C700.117 360.75 686.161 351.612 676.92 345.553L665.769 339.596C661.683 336.669 656.621 334.402 650.379 332.735C649.098 314.285 647.299 295.886 641.902 275.749C640.448 267.038 634.074 249.96 632.722 246.402C632.499 244.989 631.879 243.851 631.299 243.017C631.299 242.225 631.116 241.452 630.761 240.74L621.287 221.894C618.532 217.767 613.561 211.455 612.209 209.757C604.23 194.001 592.967 181.193 578.695 171.678C578.004 171.221 577.241 170.845 576.093 170.337C575.361 169.778 574.466 169.422 573.49 169.33C573.124 169.259 572.748 169.249 572.423 169.239C568.703 167.562 564.596 165.895 560.672 165.895H557.45C556.586 165.895 555.711 165.701 554.807 165.549C553.262 165.264 551.686 165 550.07 165C549.267 165 548.464 165.061 548.474 165.132C545.465 165.132 541.186 165.447 538.055 165.681C536.499 165.793 535.269 165.895 534.751 165.895H522.553C498.99 165.895 481.354 176.314 462.68 187.353C457.15 190.626 451.468 193.981 445.562 197.112C443.163 198.311 437.135 201.798 433.567 207.317C433.008 207.877 432.266 208.771 431.473 209.757C430.904 210.458 429.918 211.688 429.328 212.278C428.81 212.471 428.332 212.735 427.895 213.081C421.166 218.458 417.649 224.781 414.254 230.911C413.349 232.527 412.444 234.164 411.753 235.363L409.74 238.037C392.846 260.562 386.523 268.989 374.284 298.194C373.918 299.647 373.39 301.284 372.81 303.043C371.55 306.895 370.056 311.469 369.598 316.135C359.819 317.985 350.874 320.455 342.356 323.647C341.99 323.779 341.644 323.952 341.319 324.176C340.048 325.03 337.832 325.894 335.697 326.727C331.113 328.527 325.919 330.57 323.133 334.737C318.956 340.989 318.956 352.394 323.133 358.676C329.1 367.591 338.046 368.313 347.337 366.524ZM557.44 176.06C556.413 176.06 555.366 175.887 554.309 175.694C555.356 175.867 556.413 176.06 557.44 176.06ZM550.07 175.165C550.192 175.165 550.304 175.206 550.415 175.206C549.775 175.185 549.135 175.185 548.474 175.287C548.372 175.287 548.25 175.297 548.149 175.297C548.25 175.297 548.382 175.287 548.474 175.287C548.748 175.297 549.785 175.216 550.07 175.165ZM543.137 175.511C543.381 175.49 543.584 175.48 543.828 175.47C543.595 175.48 543.361 175.501 543.137 175.511ZM514.533 176.558C517.135 176.253 519.798 176.06 522.563 176.06C519.778 176.06 517.155 176.304 514.533 176.558Z" fill="black"/>
<defs>
<linearGradient id="paint0_linear_1_26" x1="512" y1="0" x2="512" y2="1024" gradientUnits="userSpaceOnUse">
<stop stop-color="#FFD268"/>
<stop offset="1" stop-color="#F6BD41"/>
</linearGradient>
</defs>
</svg>
