<?xml version="1.0" encoding="UTF-8"?>
<svg id="Layer_1" xmlns="http://www.w3.org/2000/svg" xmlns:xlink="http://www.w3.org/1999/xlink" version="1.1" viewBox="0 0 1088 1088">
  <!-- Generator: Adobe Illustrator 30.1.0, SVG Export Plug-In . SVG Version: 2.1.1 Build 136)  -->
  <defs>
    <style>
      .st0 {
        fill: #e0e0e0;
      }

      .st1 {
        fill: #e3e3e3;
        stroke: #999;
        stroke-miterlimit: 10;
        stroke-width: 12px;
      }

      .st2 {
        fill: url(#linear-gradient);
      }

      .st3 {
        fill: #262626;
      }

      .st4 {
        fill: #ececec;
      }
    </style>
    <linearGradient id="linear-gradient" x1="544" y1="1085.89" x2="544" y2="-2.11" gradientTransform="translate(0 1085.89) scale(1 -1)" gradientUnits="userSpaceOnUse">
      <stop offset="0" stop-color="#ffd268"/>
      <stop offset="1" stop-color="#f6bd41"/>
    </linearGradient>
  </defs>
  <circle class="st2" cx="544" cy="544" r="544"/>
  <path d="M635.08,587.03v18.88c0,31.45-6.19,59.85-19.67,89.87-2.67,8-7.14,21.39-13.54,26.5-4.34,3.26-13.96,7.88-18.14,9.78-1.28.12-2.53.18-3.73.18-27.41,0-34.79-32.41-38.66-66.88,0-7.73,0-15.72-1.53-22.87,0-5.72-1.09-12.66-8.9-15.22-2.89-1.44-7.3-1.25-10.38-.72-2.11-1.06-4.32-1.61-6.59-1.61-9.88,0-17.71,10.27-19.35,20.59,0,6.94,1.14,13.61,2.46,21.34l.59,3.07c0,2.8.94,8.09,1.41,10.56-1.42,6.25-1.37,11.34.16,17.68.19,1.98.96,5.31,1.52,7.4,1.69,15.2,8.24,30.81,17.58,41.91,1.42,2.71,4.84,8.23,10.58,12.08.56.37,1.17.63,1.82.75.49.32,1.35,1.03,1.85,1.5,11.43,12.37,23.03,17.89,37.65,17.89,8.75,0,18.04-2.01,27.16-4.31,3.39-1.14,7.12-1.83,11.07-2.56,6.15-1.14,12.5-2.32,19.11-5.66,10.93-7.29,18.87-21.22,21.55-30.93,2.94-5.88,5.64-17.19,6.36-20.31,9.89-19.07,12.02-43.29,15.17-64.24,2.51-16.66-3.43-49.73,8.84-61.6"/>
  <path d="M398.93,581.76c1.42.47,3.25.95,5.13,1.38M404.07,583.14c.2,4.6.71,9.2,1.17,13.37.46,4.17.89,7.95.89,10.91,0,9.2,0,18.71,1.52,27.61.47,14.44.36,29.36.24,43.77-.23,33.01-.49,67.13,5.95,100.39l.83,4.22c4.5,22.77,9.61,48.59,26.4,66.92,35.04,36.62,86.38,39.68,131.75,39.68,8.91,0,17.08-1.21,25.71-2.5,5.06-.75,10.3-1.54,15.97-2.1.38-.03.75-.11,1.11-.22,3.92-1.32,13.4-4.85,16.17-5.89,3.59-.23,7.95-1.66,12.24-3.08,2.73-.37,5.91-2.05,7.97-3.84,27.59-13.99,51.52-39.16,65.97-69.78,3.05-9.15,6.2-18.62,7.86-28.97,0-5.71,1.46-18.94,1.44-18.94,5.4-30.58,7.71-54.09,7.71-78.65,0-.96.03-2.11.07-3.42.3-9,.74-24.04-6.87-31.89-3.11-3.2-7.28-4.89-12.08-4.89-.6,0-1.22.02-1.43.06-18.14,0-20.26,14.86-21.78,25.6-1.89,11.33-2.08,23.17-2.27,34.62-.12,7.74-.24,15.03-.85,22.63,0,10.17-1.23,25.33-2.11,29.08-.45.64-.76,1.4-.89,2.23-.39,2.72-.68,5.45-.97,8.17-.84,7.84-1.64,15.25-4.77,22.56-.27.63-.42,1.32-.42,2,0,2.16-2.34,6.66-3.47,7.86-1.44.92-2.47,2.58-2.63,4.31-.04.52-.84,1.81-1.87,2.88-1.82,2.18-3.64,4.45-5.49,6.75-5.73,7.15-11.67,14.55-18.6,20.35-3.63,3.63-11.73,9.58-14.01,11.22l-12.27,4.14c-48.53,8.68-89.2,3.26-121.52-16.13-3.75-2.25-7.4-4.14-10.91-5.95-10.4-5.37-18.61-9.61-23.72-20.83-9.09-19.31-9.52-38.21-9.99-58.22-.13-5.77-.26-11.65-.6-17.39,0-8.66-.88-16.92-1.75-24.93-.83-8.08-1.66-15.72-1.66-23.85v-90.27M441.94,578.46s0-.01,0,0Z"/>
  <path d="M379.34,398.52c8.05-1.55,16.36-4.99,23.23-6.61,8.62-2.03,16-2.6,24.26.43,5.79,2.12,19.08,4.53,23.2,9.43.67.8,1.6,1.41,2.66,1.68l3.13.83c4.44,1.24,8.39,2.06,12.68.81,3.8-.21,7.14-1.84,7.53-2.03.48-.24.66-.36,1.05-.73.22-.12.86-.23,1.25-.24,1.42,0,2.78-.6,3.75-1.65,6.25-6.82,8.84-13.85,7.73-20.9-1.69-10.59-11.48-18.56-20.44-24.16,2.05-4.85,2.16-10.89,1.98-14.59,2.7-3.55,4.28-8.18,4.43-13.14,1.17-4.15,1.45-10.12,1.51-12.97,1.09-2.12,1.43-4.65,1.51-6.56l1.41-3.32c3.96-9.41,8.06-19.15,13.91-26.2,1.7-1.7,2.99-3.39,4.26-5.09.89-1.19,1.77-2.38,2.9-3.58,3.59-2.17,8.58-7.07,9.62-8.11l1.04-1.04c10.34-5.88,22.12-11.75,32.3-16.11,4.31-1.44,8.41-2.8,11.6-4.28,2.71-.21,5.67-1.04,7.12-1.47,19.05.31,38.31,12.63,47.79,30.07,1.91,5.75,4.33,10.8,6.68,15.65,1.47,3.07,2.91,6.04,3.99,8.73,1.4,4.2,4.78,10.16,6.08,12.4,3.01,16.45,6,31.44,8.9,45.47,0,3.09.09,5.7.29,8.13-1.32-.03-2.64-.05-3.95-.05-16.2,0-27.1,3.01-34.95,10.22-5.5,7.33-7.79,19.1-1.06,27.97,3.19,3.21,8.94,4.94,11.81,5.65,2.99,2.61,7.16,5.03,11.16,5.67,2.08,1.41,4.41,2.11,5.22,2.33.41.13.85.19,1.3.19h1.53c5.57,0,11.46-1.03,17.15-2.01,8.85-1.55,17.89-2.87,23.93-.6,3.78,1.26,6.34,2.76,11.54,6.17,2.24,1.11,6.05,2.72,8.1,3.58,4.02,5.27,10.81,8.36,18.51,8.36,10.71,0,22.19-6.31,23.39-18.33,1.76-15.78-12.2-24.91-21.44-30.97l-11.15-5.96c-4.09-2.93-9.15-5.19-15.39-6.86-1.28-18.45-3.08-36.85-8.48-56.99-1.45-8.71-7.83-25.79-9.18-29.35-.22-1.41-.84-2.55-1.42-3.39,0-.79-.18-1.57-.54-2.28l-9.47-18.85c-2.76-4.13-7.73-10.44-9.08-12.14-7.98-15.76-19.24-28.56-33.51-38.08-.69-.46-1.45-.83-2.6-1.34-.73-.56-1.63-.92-2.6-1.01-.37-.07-.74-.08-1.07-.09-3.72-1.68-7.83-3.34-11.75-3.34h-3.22c-.86,0-1.74-.19-2.64-.35-1.54-.28-3.12-.55-4.74-.55-.8,0-1.61.06-1.6.13-3.01,0-7.29.32-10.42.55-1.56.11-2.79.21-3.3.21h-12.2c-23.56,0-41.2,10.42-59.87,21.46-5.53,3.27-11.21,6.63-17.12,9.76-2.4,1.2-8.43,4.69-12,10.21-.56.56-1.3,1.45-2.09,2.44-.57.7-1.55,1.93-2.14,2.52-.52.19-1,.46-1.43.8-6.73,5.38-10.25,11.7-13.64,17.83-.9,1.62-1.81,3.25-2.5,4.45l-2.01,2.67c-16.89,22.53-23.22,30.95-35.46,60.16-.37,1.45-.89,3.09-1.47,4.85-1.26,3.85-2.75,8.43-3.21,13.09-9.78,1.85-18.72,4.32-27.24,7.51-.37.13-.71.3-1.04.53-1.27.85-3.49,1.72-5.62,2.55-4.58,1.8-9.78,3.84-12.56,8.01-4.18,6.25-4.18,17.66,0,23.94,5.97,8.92,14.91,9.64,24.2,7.85ZM589.44,208.06c-1.03,0-2.07-.17-3.13-.37,1.05.17,2.1.37,3.13.37ZM582.07,207.16c.12,0,.23.04.34.04-.64-.02-1.28-.02-1.94.08-.1,0-.22,0-.33,0,.1,0,.23,0,.33,0,.27,0,1.31-.07,1.6-.12ZM575.14,207.51c.24-.02.45-.03.69-.04-.23,0-.47.03-.69.04ZM546.53,208.56c2.6-.3,5.26-.5,8.03-.5-2.78,0-5.41.24-8.03.5Z"/>
  <g>
    <path class="st1" d="M728.31,449.08c83.44,72.61-29.85,199.21-113.35,128.09-78.77-77.86,25.08-200.18,113.35-128.09Z"/>
    <path d="M685.41,489.61c-27.17-22.44-68.79-6.91-75.2,27.57-6.48,33.88,26.05,63.12,59.04,53.16,35.49-10.56,45.18-57.12,16.31-80.6l-.15-.13Z"/>
    <path class="st4" d="M627.13,509.79c1.71,2.74,1.24,8.08-.54,10.92-2.62,4.91-8.13,3.84-9.21-1.28-.76-3.02,0-7.09,1.84-9.46,1.82-2.79,5.97-3.61,7.82-.35l.1.16Z"/>
    <path class="st1" d="M483.3,439.57c49.52,29.79,54.68,101.66,10.16,138.4-40.7,34.5-104.11,22.97-129.98-23.72-41.14-77.32,43.85-159.54,119.66-114.79l.17.1Z"/>
    <path d="M472.18,481.84c-45.36-17.7-85.29,34.92-55.53,73.75,22.77,29.24,69,22,82.18-12.46,9.46-23.65-2.88-51.79-26.46-61.21l-.18-.08Z"/>
    <path class="st0" d="M491.42,522.48c-8.3,4.78-13.06-11.1-4.85-13.74,7.34-2.33,10.27,9.92,4.99,13.64l-.14.1Z"/>
    <path class="st3" d="M472.23,481.89c-18.67,25.23-32.14,42.44-65.71,47.01-.95-16.37,6.56-32.08,19.89-41.62,13.33-9.54,30.63-11.57,45.81-5.39Z"/>
    <path class="st3" d="M702.03,532.87c-4.54-5.53-11.48-7.13-18.51-9.6-20-7.01-33.53-22.91-43.64-41.29,15.49-5.71,32.86-2.8,45.63,7.66,12.78,10.46,19.06,26.91,16.52,43.22Z"/>
  </g>
</svg>